<svg xmlns="http://www.w3.org/2000/svg" viewBox="0 0 172 40"><title>admiralty--desktop</title><path d="M11.89.26H7.71C5.14,7.39,2.64,13.9.31,19.78H3.89c.23-.66.74-2.1,1.6-4.32,1.21-.05,2.68-.08,3.86-.08,1.4,0,2.54,0,3.93.08.51,1.4,1.06,2.8,1.57,4.32h4.48C16.52,13,14.07,6.45,11.89.26M9.35,12.57c-.78,0-2.07,0-2.81-.07C7.6,9.84,8.41,7.43,9.47,5c1,2.41,2.49,6.7,2.8,7.48-1.09,0-1.87.07-2.92.07" style="fill:#09315b"/><path d="M30.46.26H23.25c.08,3.27.12,6.66.12,9.9s0,6.39-.12,9.62h7.21c8.26,0,10.6-5.81,10.6-9.74S38.72.26,30.46.26m0,16.48H27.42c-.12-2.22-.12-4.28-.12-6.55s0-4.63.12-6.89H30.5c3.39,0,6.23,2.22,6.23,6.7s-2.84,6.74-6.23,6.74" style="fill:#09315b"/><path d="M48.85,19.78c-.07-2.38-.11-5.38-.11-7.6s0-3.54.11-5.77q3.1,4.34,5.74,8.77h.54C56.77,12.57,58.79,9.49,61,6c0,2.19.12,4.29.12,6.35,0,2.54,0,5.27-.12,7.41h4.14c-.08-3.23-.16-6.43-.16-9.7s.08-6.55.16-9.82H60.9C59,3.49,57.12,6.53,55.36,9A100.62,100.62,0,0,1,49.64.26H45.27c.08,3.39.2,6.74.2,10s-.12,6.42-.2,9.54h3.58" style="fill:#09315b"/><path d="M75.86,19.78c-.12-2-.12-6.54-.12-9.81,0-3.09,0-7.69.12-9.71H71.65c.12,2,.12,6.62.12,9.71,0,3.27,0,7.82-.12,9.81h4.21" style="fill:#09315b"/><path d="M93,11.32a5.68,5.68,0,0,0,3.32-5.18c0-2.33-1.64-5.88-6.78-5.88H82.37c.08,3.39.15,6.74.15,10s-.07,6.42-.15,9.54h4c0-1.4-.08-2.84-.08-4.25,0-1.16,0-2.33.08-3.5h2.5c2,2.88,3.69,5.53,5,7.75h4.76c-2.07-2.84-4-5.72-5.62-8.46M88.92,9.18h-2.5c0-1,0-2,0-3s0-2,0-3h2.5c1.83,0,3.42.94,3.42,3s-1.59,3-3.42,3" style="fill:#09315b"/><path d="M112.59.26h-4.16c-2.57,7.13-5.07,13.64-7.41,19.52h3.59c.23-.66.74-2.11,1.59-4.32,1.21-.05,2.7-.09,3.87-.09,1.4,0,2.52,0,3.93.09.51,1.4,1,2.8,1.56,4.32H120C117.23,13,114.78,6.45,112.59.26m-2.52,12.31c-.79,0-2.07,0-2.81-.07,1-2.66,1.87-5.07,2.92-7.49,1,2.42,2.49,6.71,2.81,7.49-1.09,0-1.88.07-2.92.07" style="fill:#09315b"/><path d="M136.48,19.78c-2.06-.08-4.28-.08-6.39-.08s-4.12,0-6.31.08c.08-3.27.16-6.62.16-9.9s-.08-6.39-.16-9.62H128c-.08,3-.12,6.54-.12,9.62,0,2.42,0,4.44.12,6.86h3.82c1.64,0,3.43,0,4.67-.08v3.12" style="fill:#09315b"/><path d="M152,3.34c-1.68-.08-3.74-.12-5.73-.12,0,2.45-.08,5.06-.08,7.52,0,3,0,6,.08,9h-4.21c.08-3,.12-5.88.12-9,0-2.42,0-5.22-.12-7.6-2.1,0-4.21,0-5.73.12V.26q3.93.1,7.83.11T152,.26V3.34" style="fill:#09315b"/><path d="M165.18,12.87c0,1.05,0,1.91,0,2.64l.12,4.14h-4.21c0-1,.08-2.66.08-4.41s0-3.82,0-4.24c-1.91-3.4-4.41-7.18-6.94-10.88h4.91a67.13,67.13,0,0,0,4.45,7.4,85.79,85.79,0,0,0,4.67-7.4H172c-2.81,4.25-5.34,8.15-6.78,10.84,0,.23,0,.85,0,1.91" style="fill:#09315b"/><polyline points="10.76 39.66 10.76 29.23 5.96 35.14 1.17 29.23 1.17 39.66 0 39.66 0 27.36 1.17 27.36 5.96 33.29 10.76 27.36 11.93 27.36 11.93 39.66 10.76 39.66" style="fill:#09315b"/><path d="M19,39.66v-.88a4,4,0,0,1-2.64,1.08,2.44,2.44,0,0,1-2.71-2.34,2.57,2.57,0,0,1,1.41-2.31,9.34,9.34,0,0,1,3.94-.6v-.55a1.71,1.71,0,0,0-1.89-2,7,7,0,0,0-2.87.73l.22-1a7.15,7.15,0,0,1,2.82-.6A2.52,2.52,0,0,1,20.09,34v5.66H19m0-4.16a9,9,0,0,0-3.35.48,1.63,1.63,0,0,0-.92,1.48A1.54,1.54,0,0,0,16.5,39,4,4,0,0,0,19,37.81Z" style="fill:#09315b"/><path d="M25.48,32.19a3,3,0,0,0-2.17,1.27v6.2H22.24V31.37h1.07v1.06a3.38,3.38,0,0,1,2.38-1.21,2.44,2.44,0,0,1,1.07.28v1.17a1.75,1.75,0,0,0-1.28-.48" style="fill:#09315b"/><path d="M28.36,29.7l-1-.95,1-.95.95.95-.95.95m-.53,1.67h1.06v8.29H27.83Z" style="fill:#09315b"/><path d="M33.74,39.86c-1.07,0-2.51-.55-2.51-2.78v-4.8H30v-.91h1.28V29.32h1.06v2.05h3v.91h-3V37c0,1.49.88,1.91,1.67,1.91a2.77,2.77,0,0,0,1.75-.59v1a4.35,4.35,0,0,1-2,.49" style="fill:#09315b"/><path d="M37.28,29.7l-1-.95,1-.95.95.95-.95.95m-.53,1.67h1.06v8.29H36.75Z" style="fill:#09315b"/><path d="M51.61,39.66V34.5a2.3,2.3,0,0,0-2.28-2.36,4.08,4.08,0,0,0-2.68,1.32,3.72,3.72,0,0,1,.17,1.13v5.07H45.76V34.5a2.3,2.3,0,0,0-2.29-2.36,4.06,4.06,0,0,0-2.53,1.17v6.35H39.88V31.37h1.06v.95a4.59,4.59,0,0,1,2.8-1.13,3,3,0,0,1,2.56,1.5,5,5,0,0,1,3.3-1.5,3.19,3.19,0,0,1,3.07,3.4v5.07H51.61" style="fill:#09315b"/><path d="M55.4,35.65a3.13,3.13,0,0,0,3.31,3.28,5.43,5.43,0,0,0,3.16-1.06v1a6.09,6.09,0,0,1-3.29,1,4.08,4.08,0,0,1-4.25-4.41,4.13,4.13,0,0,1,4.05-4.28C60,31.19,62,32.5,62,35.56v.09H55.4m2.92-3.51a2.94,2.94,0,0,0-2.85,2.56h5.4A2.57,2.57,0,0,0,58.32,32.14Z" style="fill:#09315b"/><path d="M70.55,39.66H67V27.36h3.59a6.26,6.26,0,0,1,6.55,6.15c0,3.6-2.91,6.15-6.55,6.15m-.19-11.24H68.13V38.6h2.05c3.26,0,5.75-2,5.75-5.09A5.24,5.24,0,0,0,70.36,28.42Z" style="fill:#09315b"/><path d="M83.57,39.66v-.88a4,4,0,0,1-2.63,1.08,2.44,2.44,0,0,1-2.71-2.34,2.55,2.55,0,0,1,1.41-2.31,9.26,9.26,0,0,1,3.93-.6v-.55a1.71,1.71,0,0,0-1.88-2,7.06,7.06,0,0,0-2.88.73l.22-1a7.23,7.23,0,0,1,2.82-.6A2.52,2.52,0,0,1,84.63,34v5.66H83.57m0-4.16a9,9,0,0,0-3.35.48,1.63,1.63,0,0,0-.91,1.48A1.54,1.54,0,0,0,81.05,39a3.91,3.91,0,0,0,2.52-1.14Z" style="fill:#09315b"/><path d="M89.74,39.86c-1.06,0-2.51-.55-2.51-2.78v-4.8H86v-.91h1.28V29.32h1.06v2.05h3v.91h-3V37c0,1.49.88,1.91,1.67,1.91a2.73,2.73,0,0,0,1.75-.59v1a4.32,4.32,0,0,1-2,.49" style="fill:#09315b"/><path d="M98,39.66v-.88a4,4,0,0,1-2.63,1.08,2.44,2.44,0,0,1-2.71-2.34,2.57,2.57,0,0,1,1.41-2.31,9.29,9.29,0,0,1,3.93-.6v-.55c0-1.61-1-2-1.88-2a7,7,0,0,0-2.87.73l.21-1a7.23,7.23,0,0,1,2.82-.6A2.53,2.53,0,0,1,99.11,34v5.66H98m0-4.16a9,9,0,0,0-3.35.48,1.63,1.63,0,0,0-.91,1.48A1.54,1.54,0,0,0,95.52,39,3.91,3.91,0,0,0,98,37.81Z" style="fill:#09315b"/><path d="M107.65,39.86a3.71,3.71,0,0,1-3.61-2.4l1-.51a2.83,2.83,0,0,0,2.68,1.87,2.38,2.38,0,0,0,2.44-2.45c0-2.66-5.44-3.37-5.44-6.46a2.84,2.84,0,0,1,3.1-2.75,3.39,3.39,0,0,1,2.78,1.54l-.84.67a2.4,2.4,0,0,0-2-1.17,1.7,1.7,0,0,0-1.83,1.67c0,2.27,5.44,3.18,5.44,6.42a3.57,3.57,0,0,1-3.68,3.57" style="fill:#09315b"/><path d="M117.27,39.86a4.34,4.34,0,1,1,4.38-4.34,4.36,4.36,0,0,1-4.38,4.34m0-7.72a3.39,3.39,0,1,0,3.3,3.38A3.25,3.25,0,0,0,117.27,32.14Z" style="fill:#09315b"/><path d="M125.81,39.86c-1.18,0-2.5-.55-2.5-2.93V27.36h1.06V37c0,1.63.93,1.89,1.57,1.89a2.47,2.47,0,0,0,1.47-.51v1a3.26,3.26,0,0,1-1.6.44" style="fill:#09315b"/><path d="M134.1,39.66v-.9a4.45,4.45,0,0,1-2.74,1.08,3.23,3.23,0,0,1-3.4-3.4V31.37H129v5.16a2.33,2.33,0,0,0,2.48,2.36,4,4,0,0,0,2.6-1.13V31.37h1.06v8.29H134.1" style="fill:#09315b"/><path d="M140.07,39.86c-1.07,0-2.51-.55-2.51-2.78v-4.8h-1.28v-.91h1.28V29.32h1.06v2.05h3v.91h-3V37c0,1.49.88,1.91,1.67,1.91a2.73,2.73,0,0,0,1.75-.59v1a4.32,4.32,0,0,1-2,.49" style="fill:#09315b"/><path d="M143.25,29.7l-.95-.95.95-.95.95.95-.95.95m-.53,1.67h1.06v8.29h-1.06Z" style="fill:#09315b"/><path d="M149.51,39.86a4.34,4.34,0,1,1,4.37-4.34,4.37,4.37,0,0,1-4.37,4.34m0-7.72a3.39,3.39,0,1,0,3.29,3.38A3.25,3.25,0,0,0,149.51,32.14Z" style="fill:#09315b"/><path d="M161.78,39.66V34.5a2.33,2.33,0,0,0-2.48-2.36,3.92,3.92,0,0,0-2.6,1.13v6.39h-1.06V31.37h1.06v.9a4.45,4.45,0,0,1,2.74-1.08,3.24,3.24,0,0,1,3.41,3.4v5.07h-1.07" style="fill:#09315b"/><path d="M167.44,39.88a8.07,8.07,0,0,1-2.91-.64V38.18a6.54,6.54,0,0,0,3,.73c1.24,0,1.88-.59,1.88-1.39,0-.44-.23-.83-1.35-1.28-2.2-.92-2.65-1.16-2.95-1.45a1.86,1.86,0,0,1-.58-1.32c0-1.24,1-2.28,3-2.28a6.06,6.06,0,0,1,2.41.53v1a6.14,6.14,0,0,0-2.52-.64c-1.17,0-1.85.57-1.85,1.24,0,.48.22.83,1.41,1.3A9.47,9.47,0,0,1,169.74,36a1.87,1.87,0,0,1,.72,1.46c0,1.63-1.58,2.4-3,2.4" style="fill:#09315b"/></svg>