<svg xmlns="http://www.w3.org/2000/svg" xmlns:xlink="http://www.w3.org/1999/xlink" viewBox="0 0 245.23 136"><defs><path id="a" d="M5 5h2.49v125.52H5z"/></defs><clipPath id="b"><use xlink:href="#a" overflow="visible"/></clipPath><g clip-path="url(#b)"><defs><path id="c" d="M5 5h236v127H5z"/></defs><clipPath id="d"><use xlink:href="#c" overflow="visible"/></clipPath><path clip-path="url(#d)" fill="#221f1c" d="M0 0h12.49v135.52H0z"/></g><defs><path id="e" d="M37.33 91.08c0 5.39-3.07 8.27-8.44 8.27-5.56 0-8.83-2.6-8.83-8.27V77.33h2.88v13.75c0 3.85 2.21 5.87 5.95 5.87 3.65 0 5.56-2.12 5.56-5.87V77.33h2.88v13.75z"/></defs><clipPath id="f"><use xlink:href="#e" overflow="visible"/></clipPath><g clip-path="url(#f)"><defs><path id="g" d="M5 5h236v127H5z"/></defs><clipPath id="h"><use xlink:href="#g" overflow="visible"/></clipPath><path clip-path="url(#h)" fill="#221f1c" d="M15.06 72.33h27.27v32.03H15.06z"/></g><defs><path id="i" d="M41.65 77.33h2.88V88.1l10.93-10.77h3.74l-9.01 8.66 9.4 12.88h-3.74l-7.78-10.86-3.54 3.36v7.5h-2.88z"/></defs><clipPath id="j"><use xlink:href="#i" overflow="visible"/></clipPath><g clip-path="url(#j)"><defs><path id="k" d="M5 5h236v127H5z"/></defs><clipPath id="l"><use xlink:href="#k" overflow="visible"/></clipPath><path clip-path="url(#l)" fill="#221f1c" d="M36.65 72.33h27.94v31.55H36.65z"/></g><defs><path id="m" d="M69.18 76.95h2.88v9.23h11.32v-9.23h2.88v21.54h-2.88v-9.81H71.96v9.91h-2.88V76.95z"/></defs><clipPath id="n"><use xlink:href="#m" overflow="visible"/></clipPath><g clip-path="url(#n)"><defs><path id="o" d="M5 5h236v127H5z"/></defs><clipPath id="p"><use xlink:href="#o" overflow="visible"/></clipPath><path clip-path="url(#p)" fill="#221f1c" d="M64.08 71.95h27.17v31.64H64.08z"/></g><defs><path id="q" d="M95.75 100.61c-1.15 3.08-2.21 4.14-4.51 4.14-.58 0-1.25-.1-1.82-.29v-2.31c.48.19.96.38 1.53.38 1.06 0 1.63-.48 2.11-1.44l1.06-2.69-6.14-15.49h2.88l4.51 12.79h.1l4.32-12.79h2.69l-6.73 17.7z"/></defs><clipPath id="r"><use xlink:href="#q" overflow="visible"/></clipPath><g clip-path="url(#r)"><defs><path id="s" d="M5 5h236v127H5z"/></defs><clipPath id="t"><use xlink:href="#s" overflow="visible"/></clipPath><path clip-path="url(#t)" fill="#221f1c" d="M82.98 77.91h24.49v31.83H82.98z"/></g><defs><path id="u" d="M110.14 96.66c3.45 0 4.8-2.98 4.8-5.87 0-3.08-1.34-5.96-4.89-5.96-3.45 0-4.7 2.98-4.7 6.06 0 2.89 1.53 5.77 4.79 5.77zm7.2 1.83h-2.59v-2.12h-.1c-.86 1.73-2.88 2.5-4.99 2.5-4.8 0-7.2-3.85-7.2-8.18 0-4.42 2.3-8.08 7.1-8.08 1.63 0 3.84.58 4.99 2.4h.1v-7.98h2.59v21.45h.1z"/></defs><clipPath id="v"><use xlink:href="#u" overflow="visible"/></clipPath><g clip-path="url(#v)"><defs><path id="w" d="M5 5h236v127H5z"/></defs><clipPath id="x"><use xlink:href="#w" overflow="visible"/></clipPath><path clip-path="url(#x)" fill="#221f1c" d="M97.47 72.04h24.87v31.83H97.47z"/></g><defs><path id="y" d="M120.51 82.91h2.4v3.27h.1c1.25-2.5 2.97-3.75 5.76-3.65v2.69c-4.13 0-5.66 2.31-5.66 6.35v6.93h-2.59V82.91z"/></defs><clipPath id="z"><use xlink:href="#y" overflow="visible"/></clipPath><g clip-path="url(#z)"><defs><path id="A" d="M5 5h236v127H5z"/></defs><clipPath id="B"><use xlink:href="#A" overflow="visible"/></clipPath><path clip-path="url(#B)" fill="#221f1c" d="M115.51 77.52h18.25v25.97h-18.25z"/></g><defs><path id="C" d="M136.53 96.66c2.69 0 4.89-2.12 4.89-5.87 0-3.85-2.21-5.96-4.89-5.96-2.69 0-4.89 2.12-4.89 5.96-.01 3.76 2.2 5.87 4.89 5.87zm0-14.14c4.89 0 7.58 3.56 7.58 8.18 0 4.52-2.59 8.18-7.58 8.18-4.89 0-7.58-3.56-7.58-8.18 0-4.52 2.59-8.18 7.58-8.18z"/></defs><clipPath id="D"><use xlink:href="#C" overflow="visible"/></clipPath><g clip-path="url(#D)"><defs><path id="E" d="M5 5h236v127H5z"/></defs><clipPath id="F"><use xlink:href="#E" overflow="visible"/></clipPath><path clip-path="url(#F)" fill="#221f1c" d="M123.95 77.52h25.16v26.35h-25.16z"/></g><defs><path id="G" d="M157.34 90.41c0-2.79-1.25-5.58-4.41-5.58-3.26 0-4.6 2.69-4.6 5.67 0 2.79 1.06 5.96 4.41 5.96 3.36.01 4.6-3.16 4.6-6.05zm2.59 6.83c0 5.1-2.3 7.69-7.2 7.69-2.88 0-6.33-1.15-6.43-4.62h2.59c.1 1.83 2.3 2.5 4.03 2.5 3.36 0 4.7-2.4 4.7-5.96V95.8h-.1c-.86 1.92-2.88 2.89-4.89 2.89-4.6 0-6.91-3.65-6.91-7.89 0-3.65 1.82-8.27 7.2-8.27 1.92 0 3.74.87 4.6 2.6v-2.21h2.4v14.32z"/></defs><clipPath id="H"><use xlink:href="#G" overflow="visible"/></clipPath><g clip-path="url(#H)"><defs><path id="I" d="M5 5h236v127H5z"/></defs><clipPath id="J"><use xlink:href="#I" overflow="visible"/></clipPath><path clip-path="url(#J)" fill="#221f1c" d="M140.74 77.52h24.2v32.41h-24.2z"/></g><defs><path id="K" d="M163 82.91h2.4v3.27h.1c1.25-2.5 2.97-3.75 5.76-3.65v2.69c-4.13 0-5.66 2.31-5.66 6.35v6.93H163V82.91z"/></defs><clipPath id="L"><use xlink:href="#K" overflow="visible"/></clipPath><g clip-path="url(#L)"><defs><path id="M" d="M5 5h236v127H5z"/></defs><clipPath id="N"><use xlink:href="#M" overflow="visible"/></clipPath><path clip-path="url(#N)" fill="#221f1c" d="M158 77.52h18.25v25.97H158z"/></g><defs><path id="O" d="M182.1 90.51c-.96.77-2.88.77-4.6 1.06-1.73.29-3.17.87-3.17 2.79 0 1.73 1.44 2.31 2.97 2.31 3.36 0 4.8-2.12 4.8-3.56v-2.6zm4.12 7.98c-.48.29-1.06.38-1.82.38-1.34 0-2.21-.77-2.21-2.4-1.44 1.64-3.36 2.4-5.47 2.4-2.78 0-5.18-1.25-5.18-4.42 0-3.56 2.59-4.33 5.28-4.81 2.78-.58 5.28-.38 5.28-2.31 0-2.21-1.82-2.6-3.45-2.6-2.21 0-3.74.67-3.84 2.98h-2.59c.19-3.85 3.17-5.19 6.62-5.19 2.78 0 5.85.67 5.85 4.33v7.98c0 1.25 0 1.73.77 1.73.19 0 .48 0 .77-.19v2.12z"/></defs><clipPath id="P"><use xlink:href="#O" overflow="visible"/></clipPath><g clip-path="url(#P)"><defs><path id="Q" d="M5 5h236v127H5z"/></defs><clipPath id="R"><use xlink:href="#Q" overflow="visible"/></clipPath><path clip-path="url(#R)" fill="#221f1c" d="M166.54 77.52h24.68v26.35h-24.68z"/></g><defs><path id="S" d="M195.24 84.83c-3.45 0-4.8 2.98-4.8 5.87 0 3.08 1.34 5.96 4.89 5.96 3.45 0 4.7-2.98 4.7-6.06.1-2.98-1.43-5.77-4.79-5.77zm-7.2-1.92h2.59v2.12h.1c.86-1.73 2.78-2.5 4.99-2.5 4.8 0 7.2 3.85 7.2 8.18 0 4.42-2.3 8.08-7.1 8.08-1.63 0-3.84-.58-4.99-2.4h-.1v8.08h-2.59V82.91h-.1z"/></defs><clipPath id="T"><use xlink:href="#S" overflow="visible"/></clipPath><g clip-path="url(#T)"><defs><path id="U" d="M5 5h236v127H5z"/></defs><clipPath id="V"><use xlink:href="#U" overflow="visible"/></clipPath><path clip-path="url(#V)" fill="#221f1c" d="M183.04 77.52h24.87v31.93h-24.87z"/></g><defs><path id="W" d="M205.12 76.95h2.59v8.27h.1c.86-1.83 3.07-2.69 4.89-2.69 4.13 0 5.37 2.31 5.37 5.67v10.29h-2.59V87.91c0-1.92-1.25-3.17-3.17-3.17-3.07 0-4.6 2.12-4.6 4.91v8.85h-2.59V76.95z"/></defs><clipPath id="X"><use xlink:href="#W" overflow="visible"/></clipPath><g clip-path="url(#X)"><defs><path id="Y" d="M5 5h236v127H5z"/></defs><clipPath id="Z"><use xlink:href="#Y" overflow="visible"/></clipPath><path clip-path="url(#Z)" fill="#221f1c" d="M200.12 71.95h22.95v31.55h-22.95z"/></g><defs><path id="aa" d="M221.24 82.91h2.59v15.58h-2.59V82.91zm2.49-2.79h-2.59v-3.17h2.59v3.17z"/></defs><clipPath id="ab"><use xlink:href="#aa" overflow="visible"/></clipPath><g clip-path="url(#ab)"><defs><path id="ac" d="M5 5h236v127H5z"/></defs><clipPath id="ad"><use xlink:href="#ac" overflow="visible"/></clipPath><path clip-path="url(#ad)" fill="#221f1c" d="M216.14 71.95h12.69v31.55h-12.69z"/></g><defs><path id="ae" d="M237.55 87.91c-.38-1.92-1.73-3.08-3.84-3.08-3.74 0-4.89 2.89-4.89 6.06 0 2.89 1.25 5.67 4.51 5.67 2.49 0 3.93-1.44 4.32-3.85h2.59c-.58 3.85-2.97 6.06-6.91 6.06-4.8 0-7.29-3.37-7.29-7.98 0-4.71 2.4-8.37 7.39-8.37 3.55 0 6.33 1.64 6.72 5.39h-2.59v.1z"/></defs><clipPath id="af"><use xlink:href="#ae" overflow="visible"/></clipPath><g clip-path="url(#af)"><defs><path id="ag" d="M5 5h236v127H5z"/></defs><clipPath id="ah"><use xlink:href="#ag" overflow="visible"/></clipPath><path clip-path="url(#ah)" fill="#221f1c" d="M221.03 77.43h24.2v26.35h-24.2z"/></g><defs><path id="ai" d="M28.22 128.69c5.28 0 7.48-4.52 7.48-8.85s-2.21-8.85-7.48-8.85-7.48 4.52-7.48 8.85c.09 4.33 2.3 8.85 7.48 8.85zm0-20.2c6.81 0 10.27 5.39 10.27 11.25 0 5.87-3.45 11.25-10.27 11.25s-10.27-5.39-10.27-11.25 3.45-11.25 10.27-11.25z"/></defs><clipPath id="aj"><use xlink:href="#ai" overflow="visible"/></clipPath><g clip-path="url(#aj)"><defs><path id="ak" d="M5 5h236v127H5z"/></defs><clipPath id="al"><use xlink:href="#ak" overflow="visible"/></clipPath><path clip-path="url(#al)" fill="#221f1c" d="M12.95 103.49h30.53V136H12.95z"/></g><defs><path id="am" d="M42.32 117.25h-2.59v-2.31h2.59v-2.31c0-2.5 1.53-3.85 4.32-3.85.48 0 1.15.1 1.63.29v2.21c-.48-.19-.96-.19-1.44-.19-1.25 0-1.92.38-1.92 1.73v2.21h2.97v2.31h-2.97v13.37h-2.59v-13.46z"/></defs><clipPath id="an"><use xlink:href="#am" overflow="visible"/></clipPath><g clip-path="url(#an)"><defs><path id="ao" d="M5 5h236v127H5z"/></defs><clipPath id="ap"><use xlink:href="#ao" overflow="visible"/></clipPath><path clip-path="url(#ap)" fill="#221f1c" d="M34.73 103.78h18.54v31.93H34.73z"/></g><defs><path id="aq" d="M51.34 117.25h-2.59v-2.31h2.59v-2.31c0-2.5 1.53-3.85 4.32-3.85.48 0 1.15.1 1.63.29v2.21c-.48-.19-.96-.19-1.44-.19-1.25 0-1.92.38-1.92 1.73v2.21h2.97v2.31h-2.97v13.37h-2.59v-13.46z"/></defs><clipPath id="ar"><use xlink:href="#aq" overflow="visible"/></clipPath><g clip-path="url(#ar)"><defs><path id="as" d="M5 5h236v127H5z"/></defs><clipPath id="at"><use xlink:href="#as" overflow="visible"/></clipPath><path clip-path="url(#at)" fill="#221f1c" d="M43.75 103.78h18.54v31.93H43.75z"/></g><defs><path id="au" d="M58.82 114.94h2.59v15.58h-2.59v-15.58zm2.59-2.79h-2.59v-3.17h2.59v3.17z"/></defs><clipPath id="av"><use xlink:href="#au" overflow="visible"/></clipPath><g clip-path="url(#av)"><defs><path id="aw" d="M5 5h236v127H5z"/></defs><clipPath id="ax"><use xlink:href="#aw" overflow="visible"/></clipPath><path clip-path="url(#ax)" fill="#221f1c" d="M53.82 103.97h12.59v31.55H53.82z"/></g><defs><path id="ay" d="M75.22 119.94c-.38-1.92-1.73-3.08-3.84-3.08-3.74 0-4.89 2.89-4.89 6.06 0 2.89 1.25 5.67 4.51 5.67 2.49 0 3.93-1.44 4.32-3.85h2.59c-.58 3.85-2.97 6.06-6.91 6.06-4.8 0-7.29-3.37-7.29-7.98 0-4.71 2.4-8.37 7.39-8.37 3.55 0 6.33 1.64 6.72 5.39h-2.59v.1z"/></defs><clipPath id="az"><use xlink:href="#ay" overflow="visible"/></clipPath><g clip-path="url(#az)"><defs><path id="aA" d="M5 5h236v127H5z"/></defs><clipPath id="aB"><use xlink:href="#aA" overflow="visible"/></clipPath><path clip-path="url(#aB)" fill="#221f1c" d="M58.71 109.46h24.2v26.35h-24.2z"/></g><defs><path id="aC" d="M90.96 121.29c-.1-2.4-1.92-4.42-4.51-4.42-2.69 0-4.32 2.02-4.41 4.42h8.92zm2.49 4.32c-.67 3.46-3.17 5.29-6.62 5.29-4.99 0-7.29-3.46-7.48-8.18 0-4.71 3.07-8.08 7.29-8.08 5.47 0 7.2 5.19 7 8.95h-11.6c-.1 2.69 1.44 5.1 4.89 5.1 2.11 0 3.55-1.06 4.03-3.08h2.49z"/></defs><clipPath id="aD"><use xlink:href="#aC" overflow="visible"/></clipPath><g clip-path="url(#aD)"><defs><path id="aE" d="M5 5h236v127H5z"/></defs><clipPath id="aF"><use xlink:href="#aE" overflow="visible"/></clipPath><path clip-path="url(#aF)" fill="#221f1c" d="M74.35 109.65h24.31v26.25H74.35z"/></g><defs><path id="aG" d="M37.14 59.25c-.1 1.64.58 2.98 1.82 3.56 0 0-.1-.87-.19-.96.1.19.67 1.06.77.96.1-.29-.1-.87-.1-1.15.1.48.67 1.44.77 1.35.19-.38 0-1.35 0-1.54.29.1.58 1.73.58 1.54.29-.1.48-1.64.48-1.54.19 0 .1 1.25.1 1.54.29-.1.77-1.64.67-1.44.19.1 0 .96 0 1.25.1.1.67-.87.67-.96.1 0-.38 1.06-.29 1.06 1.25-.48 1.82-2.02 1.82-3.56.1-2.4-1.44-4.33-3.55-4.23-1.92.08-3.36 1.91-3.55 4.12zm3.45 5.48c-.19-1.06-.38-1.35-1.34-1.25-1.15-.1-1.92-1.25-2.21-2.31-.1-.38-.19-.77-.19-1.15 0-.58.1-1.15.1-1.73-1.25 2.4-3.17-1.35-7.39-1.54 1.15 1.15 3.36 1.92 2.88 2.89 2.78-.1 2.11 3.08-1.25 2.31.1 1.73-3.36 1.15-5.28 2.79.77 0 1.44.38 2.01.38 1.15 0 2.21-.19 2.88.38.58-1.06 1.34-1.35 1.92-1.64 3.17-1.54 5.56 2.31 1.92 1.92.29 1.44-1.34.96-3.26 3.17 3.36.67 4.13-2.79 5.85-1.44-.38-2.6 2.3-2.89 3.45-1.15 1.06-1.73 3.84-1.35 3.45 1.15 1.73-1.35 2.49 2.12 5.85 1.44-1.92-2.21-3.55-1.73-3.17-3.17-3.65.38-1.25-3.46 1.92-1.92.58.29 1.34.58 1.92 1.64.77-.58 1.73-.29 2.88-.38.58 0 1.25-.38 2.01-.38-1.92-1.54-5.37-.96-5.28-2.79-3.26.77-4.03-2.4-1.15-2.31-.48-.96 1.73-1.73 2.88-2.89-4.22.19-6.14 3.94-7.39 1.64 0 .48.19 1.06.1 1.73l-.19 1.15c-.29 1.06-1.06 2.21-2.21 2.31-.96-.1-1.15.19-1.34 1.25 0 .1-.1.19-.1.19-.27-.1-.27-.29-.27-.29zm.67-10.39l.96-1.54v1.73l1.06-1.06-.38 1.44 1.15-.67.38-1.54-1.06.67v-1.83l-1.15.96-.58-1.64-.86 1.25-.86-1.15-.58 1.64-1.15-.96-.1 1.73-1.06-.67.38 1.54 1.15.67-.38-1.44 1.06 1.06V52.8l.96 1.54.48-1.92.58 1.92zm7.58 2.02c-.1-.1-.29-.1-.38-.19-.19.38-.38.87-.58 1.25.19-.1.38-.19.67-.29.1-.19.2-.48.29-.77zm-.57-.67c1.73 1.44 4.41-.29 3.17-1.25 1.15-2.31-1.15-2.98-2.69-.67.58-1.92-.19-3.56-1.34-2.98-.67-.87-1.44-.48-1.53.58-1.63.1-.67 2.31.86 3.17-3.07-.58-4.03 1.83-1.73 2.4-.58 1.06 2.11 1.92 3.26-1.25zm-15.35 1.63c.19.1.38.19.67.29-.19-.38-.38-.77-.58-1.25-.1.1-.29.1-.38.19.1.29.19.58.29.77zm3.55-.38c2.3-.58 1.34-2.98-1.73-2.4 1.53-.77 2.49-2.98.96-3.17-.1-.96-.77-1.35-1.53-.58-1.15-.58-1.92 1.15-1.34 3.08-1.53-2.31-3.93-1.64-2.69.67-1.25 1.06 1.44 2.79 3.17 1.35 1.14 3.16 3.73 2.2 3.16 1.05zm21.49-6.64c1.82.96.58 3.27-2.49 2.98 1.15 1.44-.48 2.79-2.97 1.73l-.1-.38c1.92.77 3.65.1 2.21-1.35-.19-.29-.19-.48.29-.58 2.49.29 3.74-.87 2.88-1.83-.19-.1-.58-.19-.86-.38-.29-.19-.29-.58.1-.67 1.15-.29 2.11-.67 2.4-1.25.29-.48.1-.96-.86-1.06-.58-.1-.38-.48.1-.67.67-.87.29-1.44-.29-1.15-.29.1-.38 0-.29-.29.19-.38-.19-1.54-1.15-.67-.1.19-.19.1-.29-.1-.48-.87-1.06-.58-1.34.38-.19.48-.29.19-.38-.1-.38-.96-1.73-1.25-2.01 2.12 0 .58-.38.67-.48.29-.48-1.54-2.11-.38-1.53 1.73.1.38-.19 1.15-.38.38-.1-.19-.1-.38-.19-.48-.48-1.44-2.59.38-.58 3.37 1.73-.87 3.07.1 2.3 2.21.29.58 0 1.15-.58 1.83h.86c.38-.1.86-.29 1.25-.38-.38.19-.77.38-1.15.58-.48.87-1.25 1.25-1.92 1.64-.29.29-2.11.96-.67 1.83-1.73-.38-2.49.1-2.21.96.38.38.86.67 1.53.77.58 0 1.15-.19 1.53-.77-.1.29-.29.67-.29.87 0 .38.19.67.77.77.67.19 1.44.38 2.11.58.67.29 1.34.58 2.11.96.48.38 1.06.58 1.53.58-.29.29-.67 0-1.34.1-.96.1-1.73.67-3.17.38-1.06-.29-2.4.29-1.53 1.44-.29-.1-.48-.38-.58-.87-.29-1.06-.86-1.64-2.4-2.12-3.45-.87-3.45 2.79-.58 1.35-.58.77-.48 1.44.38 1.64.29.1.58.29.86.48 0 0 .77.58 1.15 1.15.58.58 1.53.58 1.73.67 0 .19-.38.29-.86.19-.29-.1-.58 0-.58-.1-.38.19-1.53 0-2.3-.29-1.25-.38-2.01-1.44-2.49-1.44-.77-.1-1.63.77-1.63.77 1.63-2.98-2.69-3.46-2.88-1.15l-.1.77v-.77c0-2.21-4.51-1.73-2.88 1.25 0 0-.86-.77-1.63-.77-.48 0-1.25 1.06-2.49 1.44-.77.29-1.92.38-2.3.29-.1 0-.38-.1-.67 0-.48.1-.86 0-.86-.19.19-.1 1.15 0 1.73-.67.38-.58 1.15-1.15 1.15-1.15.29-.19.48-.38.86-.48.96-.1 1.06-.87.38-1.64 2.97 1.25 2.88-2.21-.58-1.35-1.53.38-2.11.96-2.4 2.12-.19.38-.38.77-.58.87.86-1.15-.48-1.73-1.44-1.44-1.44.29-2.21-.38-3.17-.48-.58-.1-1.06.19-1.34-.1.48 0 1.06-.29 1.53-.58.77-.38 1.44-.67 2.11-.96.67-.19 1.34-.38 2.11-.58.48-.1.77-.38.77-.77.1-.19-.19-.58-.29-.87.38.58.86.77 1.53.77.67-.1 1.15-.38 1.53-.77.29-.87-.38-1.25-2.11-.96 1.44-.96-.38-1.54-.67-1.83-.77-.38-1.44-.87-1.92-1.64-.38-.19-.77-.38-1.06-.58.38.1.86.29 1.25.48.29 0 .67 0 1.15.1-.86-.58-1.06-1.25-.67-2.02-.67-2.12.48-2.98 2.21-2.12 2.01-2.89.19-4.62-.38-3.46-.1.1-.1.29-.19.58-.38.87-.67-.1-.48-.38.67-2.21-.96-3.27-1.44-1.73-.19.38-.67.38-.58-.29-.38-3.27-1.53-2.89-2.01-2.12-.19.38-.38.58-.38.1-.38-.77-.77-1.25-1.34-.38-.1.29-.19.29-.38.1-.67-.38-1.15-.29-1.06.77.1.29 0 .38-.29.29-.86-.1-1.06.38-.19 1.35.29.29.38.48 0 .58-.96.19-1.15.67-.86 1.15.29.48 1.15.87 2.4 1.15.38.1.38.38.1.58-.29.19-.58.29-.77.38-1.15.87.1 2.02 2.78 1.83.48.1.48.29.38.58-1.34 1.44.29 2.12 2.3 1.35l-.29.29c-3.07.87-3.74-.48-2.59-1.83-3.36.38-4.6-2.02-2.3-2.89-2.21-.48-3.84-2.12-1.63-2.98-.67-1.25-.77-1.92.48-1.92.1-1.06.58-1.64 1.63-1.06.48-.77 1.06-.67 1.82.1 1.44-1.25 2.21-.19 2.69 1.83 1.06-.67 1.73.1 2.21 1.73 1.44-1.35 1.63 2.98 2.49 2.21.48-.48 1.34-.58 1.63-.29.19.1.38.29.38.67.1.48.48.48.77.58.38.19.67 1.25.96 1.06l.38-1.25 1.06 1.06.67-1.73.96 1.35.96-1.15.77 1.54.96-.87.58 1.44s.29-.1.38-.29c.1-.1-.29-.96.38-1.25.19-.1.48-.1.67-.29.48-.67.86-1.44 1.63-1.06.29.19 1.25.77 1.34.29.19-.67.38-1.64.96-1.83.86-.19 1.06.1 1.06.19-.1-2.4 1.44-2.6 2.11-1.73.38-2.21 1.34-3.46 2.59-2.12.48-.87 1.15-1.06 1.82-.29 1.15-.58 1.63-.29 1.82.77 1.15 0 1.25 1.15.67 2.12 1.74.84.49 2.77-1.52 3.15z"/></defs><clipPath id="aH"><use xlink:href="#aG" overflow="visible"/></clipPath><g clip-path="url(#aH)"><defs><path id="aI" d="M5 5h236v127H5z"/></defs><clipPath id="aJ"><use xlink:href="#aI" overflow="visible"/></clipPath><path clip-path="url(#aJ)" fill="#221f1c" d="M16.6 38.76h48.7v35.43H16.6z"/></g><defs><path id="aK" d="M20.35 26.54c-1.15-1.83-1.34-4.42.86-3.46-.58-1.54-.19-3.94 1.53-2.79.58-1.15 1.15-1.73 1.92-.87.77-.29 1.15 0 1.25.77.77-.1.96.77.48 1.54 1.25.58.48 2.21-.86 3.17.86 1.06-.29 2.4-1.82 2.89-.1-.29-.19-.38-.29-.58.67-.19 2.69-1.73 1.06-2.12-.86 0-.38-.29-.1-.48 1.25-.1 2.69-2.89 1.06-2.31-.48.1-.48-.29.19-.67.38-.48.67-.96.19-1.15-.29 0-.48-.1-.38-.38 0-.38-.19-.58-.67-.38-.29.29-.29-.19-.67-.29-.58-.1-.77.38-.96.96-.1.58-.29.87-.48.38-1.15-1.25-1.44.67-1.15 2.12.19.77 0 .87-.29.67-2.01-1.15-1.44 1.64-.38 3.08-.2-.1-.39-.1-.49-.1z"/></defs><clipPath id="aL"><use xlink:href="#aK" overflow="visible"/></clipPath><g clip-path="url(#aL)"><defs><path id="aM" d="M5 5h236v127H5z"/></defs><clipPath id="aN"><use xlink:href="#aM" overflow="visible"/></clipPath><path clip-path="url(#aN)" fill="#221f1c" d="M14.51 14.01h17.52v18.78H14.51z"/></g><defs><path id="aO" d="M24.09 18.85c-.58-2.69.58-3.27 1.73-2.5-.1-2.21 1.06-3.27 2.11-1.83.38-1.15 1.25-1.54 1.82-.58.96-.1 1.15.38 1.06 1.25.58.29.77.77.19 1.44.86.96 0 2.02-1.44 2.4.77 1.73-2.21 2.12-2.49 2.02.1-.29-.1-.67-.1-.67 1.06.19 2.88-.77 1.44-1.54-.86-.38.1-.38.38-.38 1.82 0 2.4-1.35 1.44-1.54-.58-.1-.58-.29 0-.48.58-.29.96-.58.48-.87-.19-.19-.29-.29-.19-.58.1-.58-.1-.77-.58-.67-.19 0-.38 0-.38-.29-.38-.58-.67-.38-1.06.48-.1.1-.48.77-.67.29-.67-1.35-1.53-.29-1.44 1.44.1.77 0 .96-.48.48-1.34-1.06-1.63.77-1.15 2.31-.48-.08-.57-.18-.67-.18z"/></defs><clipPath id="aP"><use xlink:href="#aO" overflow="visible"/></clipPath><g clip-path="url(#aP)"><defs><path id="aQ" d="M5 5h236v127H5z"/></defs><clipPath id="aR"><use xlink:href="#aQ" overflow="visible"/></clipPath><path clip-path="url(#aR)" fill="#221f1c" d="M18.94 8.4h17.41v17.68H18.94z"/></g><defs><path id="aS" d="M22.65 45.11c-.19.1-.38.1-.48.29-2.3-.38-4.51-2.6-2.11-3.65-2.21-1.64-2.3-3.94-.38-3.65-.86-1.64-.19-2.5.96-2.12.38-.96 1.34-.96 1.82-.19.86-.48 1.73.38 1.63 1.44 1.25-.29 2.01 1.06 1.15 2.89 1.63-.19 1.92 1.73.67 3.56-.29-.1-.58-.1-.86 0 1.53-1.92 1.06-3.75-.48-2.5-.38.1-.67.1-.58-.29.96-1.25 1.44-4.14-.67-2.79-.38.1-.38-.29-.19-.48.48-.87.1-1.83-.67-1.35-.1.1-.38 0-.38-.19-.1-.58-1.06-.77-1.15.19-.1.38-.48.1-.58.1-.77-.29-.96.58-.29 1.83.1.1.29.67-.38.48-2.11-.58-.86 2.31.77 2.98.29.1.19.48-.1.48-2.11.47-.29 2.58 2.3 2.97z"/></defs><clipPath id="aT"><use xlink:href="#aS" overflow="visible"/></clipPath><g clip-path="url(#aT)"><defs><path id="aU" d="M5 5h236v127H5z"/></defs><clipPath id="aV"><use xlink:href="#aU" overflow="visible"/></clipPath><path clip-path="url(#aV)" fill="#221f1c" d="M13.32 30.22h18.37v20.17H13.32z"/></g><defs><path id="aW" d="M20.16 35.78c-.1 0-.29 0-.38.1-1.73-1.15-3.07-4.52-.58-4.33-1.25-1.44-1.63-4.04.48-3.46-.19-1.06.67-1.54 1.44-1.15.58-.58 1.06-.48 1.53.19 1.06-.19 1.15.58 1.15 1.35 1.63.29 1.06 2.5.29 3.56 1.44.58.67 2.6-.38 3.65-.19-.1-.38-.19-.67-.19 1.15-1.06 1.82-3.17.29-2.98-.58.29-.67-.1-.19-.58.86-.87 1.63-3.17.29-2.89-.29.19-.38.1-.29-.29.19-.58.1-1.44-.38-1.25-.19.19-.38.19-.38-.19-.19-.38-.38-.58-.86-.19-.1.19-.29.29-.48.1-.67-.29-.96.1-.77 1.06.1.38-.1.38-.29.29-.1-.1-.38-.29-.58-.29-.96-.1-.77 1.44.38 3.08.38.29.29.96-.29.58-1.44-.6-2.11 1.42.67 3.83z"/></defs><clipPath id="aX"><use xlink:href="#aW" overflow="visible"/></clipPath><g clip-path="url(#aX)"><defs><path id="aY" d="M5 5h236v127H5z"/></defs><clipPath id="aZ"><use xlink:href="#aY" overflow="visible"/></clipPath><path clip-path="url(#aZ)" fill="#221f1c" d="M12.83 21.55h17.06v19.32H12.83z"/></g><defs><path id="ba" d="M29.08 13.18c0-1.73 1.34-3.17 2.11-1.64.58-1.25 2.21-2.6 2.59-1.06 1.15-.96 2.3-.96 2.21.29 1.06.1 1.15.77.58 1.44 1.06.58.48 1.83-.86 1.92.1.96-.48 1.44-1.82 1.44 0 1.25-1.63 1.54-2.88.96.29-.1.38-.48.38-.58 1.73.38 2.01-.29 1.15-1.06-.19-.19 0-.29.29-.29 1.63.38 2.88-.1 1.63-1.06-.19-.38.38-.29.29-.29 1.63.38 2.21-.48 1.34-.96-.1 0-.19-.19-.1-.29.77-.58.58-1.15-.48-.96-.19.1-.29 0-.19-.19.67-1.25-.86-.96-1.73.1-.19.19-.38.1-.29-.1.29-1.44-1.25-.96-2.01 1.25-.19.29-.38.29-.38 0-.19-1.73-1.53-.77-1.53 1.06-.01.11-.3.02-.3.02z"/></defs><clipPath id="bb"><use xlink:href="#ba" overflow="visible"/></clipPath><g clip-path="url(#bb)"><defs><path id="bc" d="M5 5h236v127H5z"/></defs><clipPath id="bd"><use xlink:href="#bc" overflow="visible"/></clipPath><path clip-path="url(#bd)" fill="#221f1c" d="M24.08 4.79h18.03v17.03H24.08z"/></g><defs><path id="be" d="M50.47 16.45c-.1-.1-.1-.29-.19-.38-1.06.38-2.3.19-1.44-.96.48-.29.19-.58-.19-.29-.77.38-2.97 0-1.53-1.06.29-.1.1-.48-.29-.29-.48.29-2.4-.1-1.34-.96.38-.1.38-.29 0-.38-.67-.29-.19-1.15.38-.96.29.29.58 0 .29-.19-.58-1.54 1.44-.58 1.73 0 .1.38.58.29.38-.1-.19-1.83 1.82 0 1.92 1.06.1.58.58.58.48.1.29-1.54 1.44-.38 1.53 1.06.1-.1.29-.19.58-.19-.19-1.44-1.25-3.08-2.4-1.83-.48-1.54-2.21-2.12-2.69-.96-.96-1.06-2.59-.48-2.01.67-.67-.19-1.34.96-.58 1.44-1.15.96.29 1.92 1.25 1.64-.67 1.06 1.15 1.73 1.92 1.25-.48 2 1.82 1.33 2.2 1.33z"/></defs><clipPath id="bf"><use xlink:href="#be" overflow="visible"/></clipPath><g clip-path="url(#bf)"><defs><path id="bg" d="M5 5h236v127H5z"/></defs><clipPath id="bh"><use xlink:href="#bg" overflow="visible"/></clipPath><path clip-path="url(#bh)" fill="#221f1c" d="M39.67 4.49h18.1v17.07h-18.1z"/></g><defs><path id="bi" d="M54.69 20.87c0-.1.1-.29.19-.38-1.73-.1-3.07-.67-1.44-1.64.19 0 .58-.38-.19-.38-1.15.29-3.26-1.06-1.53-1.54.38 0 .38-.38-.1-.38-.29.19-1.15-.48-.67-.87 0-.1.38-.29.19-.58-.19-1.15 1.15-.29 1.06-.96 0 0 .48-1.06 1.15.67.1.1.48.67.58.1.38-1.25 1.92-.29 1.44 1.54-.1.58 0 .67.38.29 1.63-1.06 1.63.77 1.34 1.92.19-.1.38-.1.58 0 .38-1.92-.19-3.46-1.63-2.79.1-1.73-1.15-3.17-2.3-1.83-.19-.87-1.34-1.64-1.92-.29-.96 0-1.06.67-.96 1.25-.67.38-.38 1.25.1 1.44-1.15.96.67 2.21 1.63 2.12-.77 1.83.57 2.12 2.1 2.31z"/></defs><clipPath id="bj"><use xlink:href="#bi" overflow="visible"/></clipPath><g clip-path="url(#bj)"><defs><path id="bk" d="M5 5h236v127H5z"/></defs><clipPath id="bl"><use xlink:href="#bk" overflow="visible"/></clipPath><path clip-path="url(#bl)" fill="#221f1c" d="M45.46 8.02h17.32v17.85H45.46z"/></g><defs><path id="bm" d="M57.96 27.6c.1-.1.1-.19.19-.29-1.06-.38-2.88-1.83-1.15-2.21.58.1.58-.38 0-.48-.96 0-2.88-2.69-1.15-2.4.48.38.58-.1.1-.38-.48-.29-.86-1.35-.29-1.35.1.1.48-.1.29-.29-.1-.29.29-.67.58-.48.29.19.38.1.48-.1.48-.67 1.15.19 1.25.77.19.58.29.67.58.19 1.25-.96 1.44.38 1.15 2.12-.29.87 0 .96.48.58 2.3-.77.77 2.31.38 3.17h.67c.48-.77 1.92-4.33-.77-3.75.19-2.02-.29-3.56-1.92-2.69-.29-.87-1.34-1.73-2.01-.58-.38-.38-1.34.1-1.15.77-.77.1-.67 1.15-.1 1.73-1.73.38.38 2.79 1.06 2.98-1.74.48.17 2.5 1.33 2.69z"/></defs><clipPath id="bn"><use xlink:href="#bm" overflow="visible"/></clipPath><g clip-path="url(#bn)"><defs><path id="bo" d="M5 5h236v127H5z"/></defs><clipPath id="bp"><use xlink:href="#bo" overflow="visible"/></clipPath><path clip-path="url(#bp)" fill="#221f1c" d="M49.89 13.87h17.43V32.6H49.89z"/></g><defs><path id="bq" d="M58.72 35.68c-1.06-.96-2.11-3.27-.29-2.98.48.19.58 0 .29-.48-.67-.48-2.01-3.37-.48-3.08.19.29.67.1.29-.38-.19-.48-.1-1.35.38-1.15.29.1.38.1.38-.19.1-.48.38-.58.86-.38.19.29.38.29.67.1.77-.1.77.38.67 1.06-.19.58.1.48.38.29 1.63-.58 1.34 1.25.19 2.79-.48.77-.48 1.15.29.67 1.92-.1.48 2.5-.77 3.65.58.1.38.19.67.29 1.15-.67 2.88-4.33.67-4.62.77-1.25 1.44-3.65-.86-3.56-.1-.87-.48-1.25-1.53-.87-.77-.58-1.15-.29-1.44.38-.86-.1-1.15.38-.86 1.54-1.63-.38-1.25 2.12 0 3.46-2.11.19-.77 2.79.1 3.46h.39z"/></defs><clipPath id="br"><use xlink:href="#bq" overflow="visible"/></clipPath><g clip-path="url(#br)"><defs><path id="bs" d="M5 5h236v127H5z"/></defs><clipPath id="bt"><use xlink:href="#bs" overflow="visible"/></clipPath><path clip-path="url(#bt)" fill="#221f1c" d="M52.12 21.52h16.89v19.35H52.12z"/></g><defs><path id="bu" d="M56.33 43.57h-.48c-1.34-2.6-.77-3.56.86-3.08-.86-2.5-.29-3.37 1.15-2.89-.29-1.54.19-1.92 1.25-1.64.58-.87 1.34-.87 1.73 0 1.92-.48 1.73.77 1.25 2.12 2.4.19 1.25 2.31-.1 3.65 2.4 1.54-.48 3.75-2.21 3.94.1 0-.19-.58-.38-.58 1.44-.19 4.03-2.4 1.73-2.98-.48-.1-.48-.29-.1-.58 1.44-.96 2.78-3.37.58-2.89-.19.1-.67.1-.29-.48.48-.67.86-2.12-.38-1.73-.1.1-.38.1-.48-.29-.29-.58-.67-.67-1.06-.1-.1.29-.29.38-.48.19-.96-.29-.86.48-.77 1.25.38.67.1.87-.38.58-1.34-.58-1.73.29-.67 2.5.38.58.38.96-.29.58-1.16-.94-2.02-.07-.48 2.43z"/></defs><clipPath id="bv"><use xlink:href="#bu" overflow="visible"/></clipPath><g clip-path="url(#bv)"><defs><path id="bw" d="M5 5h236v127H5z"/></defs><clipPath id="bx"><use xlink:href="#bw" overflow="visible"/></clipPath><path clip-path="url(#bx)" fill="#221f1c" d="M50.1 30.32h18.38v20.36H50.1z"/></g><defs><path id="by" d="M29.56 52.32c-.29-.29-.58-.48-.86-.77-1.15.19-2.11.19-3.36.19-.29.1-.29-.1 0-.1s3.17-.19 3.07-.29l-2.01-2.02c0 .1-2.78-.48-2.88-.48-.38-.1-.19-.19 0-.1.1.1 2.59.38 2.59.38l-1.15-1.83c0 .1-1.44-.48-1.44-.58-.19-.1-.1-.19.1-.1l1.25.38-.67-1.54c-.1-.19 0-.19.1-.1 0 .1.96 2.02 1.06 1.92.1 0 .19-2.21.1-2.21 0-.19.1-.19.1 0 .1 0 0 2.6 0 2.6-.1.1 1.34 1.83 1.44 1.73.1 0 .58-3.37.48-3.37 0-.1.1-.1.1.1.1-.1-.38 3.37-.48 3.56 0 .1 2.11 2.02 2.11 1.92-.1 0 .38-3.65.38-3.65.1-.29.19-.19.1 0-.19 1.25-.29 2.5-.29 3.85l.38.38c-.12.04-.12.04-.22.13z"/></defs><clipPath id="bz"><use xlink:href="#by" overflow="visible"/></clipPath><g clip-path="url(#bz)"><defs><path id="bA" d="M5 5h236v127H5z"/></defs><clipPath id="bB"><use xlink:href="#bA" overflow="visible"/></clipPath><path clip-path="url(#bB)" fill="#221f1c" d="M18.29 39.96h16.46v17.36H18.29z"/></g><defs><path id="bC" d="M27.35 53.96c.58-.29 1.15-.48 1.73-.77v.19c-.58.29-1.06.48-1.63.77-.29.1-.38-.1-.1-.19z"/></defs><clipPath id="bD"><use xlink:href="#bC" overflow="visible"/></clipPath><g clip-path="url(#bD)"><defs><path id="bE" d="M5 5h236v127H5z"/></defs><clipPath id="bF"><use xlink:href="#bE" overflow="visible"/></clipPath><path clip-path="url(#bF)" fill="#221f1c" d="M22.18 48.19h11.9v10.99h-11.9z"/></g><defs><path id="bG" d="M31.48 50.01c.1-.1.1-.1.1 0-.19.58-.38 1.25-.48 1.83h-.2c.19-.58.39-1.25.58-1.83z"/></defs><clipPath id="bH"><use xlink:href="#bG" overflow="visible"/></clipPath><g clip-path="url(#bH)"><defs><path id="bI" d="M5 5h236v127H5z"/></defs><clipPath id="bJ"><use xlink:href="#bI" overflow="visible"/></clipPath><path clip-path="url(#bJ)" fill="#221f1c" d="M25.9 44.94h10.67v11.9H25.9z"/></g><defs><path id="bK" d="M23.32 44.05c-.1-.1-.1-.19-.1-.29-.77-.19-1.44-.38-2.3-.48-.48 0-.29-.1 0-.1s2.11.29 2.11.29-.96-2.31-.96-2.4c-.58-.1-1.92-1.15-1.92-1.15-.29-.19-.29-.29 0-.1l1.73.96c-.1-.29-.58-2.5-.58-2.5l-.86-.77c-.29-.19-.19-.29.1-.1l.77.58v-1.44c0-.29.1-.29.1 0 0 .1 0 1.92.1 1.92l.86-1.25c.19-.38.29-.29.1.1 0 0-.86 1.44-.96 1.44-.1 0 .67 2.6.67 2.5l1.44-2.02c.29-.38.19-.1.1.1-.48.77-.86 1.44-1.44 2.21-.1.1 1.06 2.21 1.06 2.21.38-.58.77-1.06 1.25-1.64.29-.19.1 0 .1.1-.48.48-.86 1.06-1.15 1.73.07.1-.12.1-.22.1z"/></defs><clipPath id="bL"><use xlink:href="#bK" overflow="visible"/></clipPath><g clip-path="url(#bL)"><defs><path id="bM" d="M5 5h236v127H5z"/></defs><clipPath id="bN"><use xlink:href="#bM" overflow="visible"/></clipPath><path clip-path="url(#bN)" fill="#221f1c" d="M14.94 31.33h14.79v17.72H14.94z"/></g><defs><path id="bO" d="M21.21 35.11c0-.19-.1-.48-.1-.67-.48-.38-1.06-.77-1.63-1.15-.1-.1-.1-.19 0-.1l1.53.96-.1-2.69-1.44-1.44c-.19-.19-.1-.29.1-.1l1.34 1.25s.1-2.02.19-2.02l-.77-1.06c-.1-.19 0-.29.1-.1 0 0 .67.96.67.87.1-.38.1-.87.29-1.35 0-.19.1-.1.1 0-.1.58-.19 1.25-.29 1.83.38-.29.77-.58 1.06-.96.19-.19.19-.1.1.1-.38.38-.77.87-1.15 1.25 0 .67-.1 1.44-.1 2.12.67-.58 1.73-1.44 1.82-1.44.38-.38.19 0 .1.1-.58.58-1.15 1.06-1.82 1.64 0 .96.1 1.83.19 2.79.48-.38.96-.67 1.53-.96.29-.19.29 0 0 .1-.58.29-1.06.67-1.53 1.06v.1c-.09-.13-.09-.13-.19-.13z"/></defs><clipPath id="bP"><use xlink:href="#bO" overflow="visible"/></clipPath><g clip-path="url(#bP)"><defs><path id="bQ" d="M5 5h236v127H5z"/></defs><clipPath id="bR"><use xlink:href="#bQ" overflow="visible"/></clipPath><path clip-path="url(#bR)" fill="#221f1c" d="M14.38 22.4h13.79v17.81H14.38z"/></g><defs><path id="bS" d="M21.79 26.35c.1-.19.1-.29.19-.48-.38-.48-.67-.96-1.15-1.44-.19-.19-.1-.29.1-.1l1.15 1.25c.29-.67.58-1.35.77-2.02-.29-.48-.58-.96-.86-1.44-.19-.19 0-.29.1-.1.29.48.58.87.86 1.25.38-.58.67-1.25 1.06-1.92-.1-.29-.1-.58-.19-.87-.1-.19 0-.29.1 0 .1.19.19.48.19.77.29-.29.48-.67.67-.96.19-.19.1 0 .1.1-.29.38-.58.77-.86 1.15.38-.1.86-.19 1.25-.19.58-.19.1.19 0 .1-.38.1-.86.29-1.44.29-.38.67-.67 1.44-1.06 2.12.77-.1 1.53-.29 2.3-.48.29-.1.29.1 0 .1-.77.29-1.63.48-2.4.58-.29.77-.58 1.44-.67 2.21.58-.1 1.06-.29 1.73-.29.19-.1.58.1 0 .1-.58.1-1.15.19-1.63.48-.12-.21-.22-.21-.31-.21z"/></defs><clipPath id="bT"><use xlink:href="#bS" overflow="visible"/></clipPath><g clip-path="url(#bT)"><defs><path id="bU" d="M5 5h236v127H5z"/></defs><clipPath id="bV"><use xlink:href="#bU" overflow="visible"/></clipPath><path clip-path="url(#bV)" fill="#221f1c" d="M15.72 15.21h14.8v16.33h-14.8z"/></g><defs><path id="bW" d="M25.63 19.33l.29-.29c-.19-.48-.38-.96-.58-1.35-.1-.19 0-.19.1-.1l.67 1.25c.48-.58.96-1.15 1.44-1.73-.19-.48-.38-.96-.58-1.44-.1-.29.1-.1.1-.1.19.38.38.87.58 1.25.38-.38.86-.77 1.25-1.25v-.96c0-.19.1-.19.1 0 .1.29.1.58.1.77.29-.19.48-.38.77-.58.1-.1.19-.1.1.1-.29.29-.58.58-.86.87.29 0 .58.1.86.1.29 0 .29.19 0 .1h-1.06c-.48.48-.96.96-1.34 1.44.48.1 1.15.1 1.63.1.19 0 .19.1 0 .1-.58 0-1.25-.1-1.73-.1-.48.58-.86 1.15-1.34 1.73.48.1.96.1 1.44.19.38 0 .38.1.1.1 0 .1-1.63-.1-1.63-.1-.32 0-.41-.1-.41-.1z"/></defs><clipPath id="bX"><use xlink:href="#bW" overflow="visible"/></clipPath><g clip-path="url(#bX)"><defs><path id="bY" d="M5 5h236v127H5z"/></defs><clipPath id="bZ"><use xlink:href="#bY" overflow="visible"/></clipPath><path clip-path="url(#bZ)" fill="#221f1c" d="M20.3 9.47h14.86v15.08H20.3z"/></g><defs><path id="ca" d="M30.61 14.04c.58-.29 1.06-.67 1.63-.96.1-.58.1-1.06.19-1.64 0-.29.1-.1.1 0 0 .48 0 .96-.1 1.54.67-.38 1.25-.58 1.92-.87.1-.29.19-.67.29-.96.1-.38.19-.29.1-.1-.1.29-.1.58-.19.87.29-.1.58-.19.86-.29.29-.1.29.1 0 .1-.38.1-.77.29-1.15.38.29.19.67.38 1.06.48.29.1.29.19 0 .1-.48-.1-.86-.29-1.34-.38-.58.29-1.25.58-1.82.87.38.38.77.67 1.25.87.19.1.19.19-.1.1 0 0-1.44-.77-1.44-.87-.38.29-.86.58-1.25.87.09-.01.09-.11-.01-.11z"/></defs><clipPath id="cb"><use xlink:href="#ca" overflow="visible"/></clipPath><g clip-path="url(#cb)"><defs><path id="cc" d="M5 5h236v127H5z"/></defs><clipPath id="cd"><use xlink:href="#cc" overflow="visible"/></clipPath><path clip-path="url(#cd)" fill="#221f1c" d="M25.61 5.89h15.01v13.29H25.61z"/></g><defs><path id="ce" d="M30.04 13.85c.1 0 .1.1.19.1 0-.38-.1-.77-.1-1.15 0-.19-.1-.19-.1 0 .01.28.01.66.01 1.05z"/></defs><clipPath id="cf"><use xlink:href="#ce" overflow="visible"/></clipPath><g clip-path="url(#cf)"><defs><path id="cg" d="M5 5h236v127H5z"/></defs><clipPath id="ch"><use xlink:href="#cg" overflow="visible"/></clipPath><path clip-path="url(#ch)" fill="#221f1c" d="M25.04 7.65h10.19v11.3H25.04z"/></g><defs><path id="ci" d="M30.9 14.62v.19c.38.19.67.38.96.67.19.1.19-.1 0-.1-.29-.28-.57-.57-.96-.76z"/></defs><clipPath id="cj"><use xlink:href="#ci" overflow="visible"/></clipPath><g clip-path="url(#cj)"><defs><path id="ck" d="M5 5h236v127H5z"/></defs><clipPath id="cl"><use xlink:href="#ck" overflow="visible"/></clipPath><path clip-path="url(#cl)" fill="#221f1c" d="M25.9 9.62H37v10.89H25.9z"/></g><defs><path id="cm" d="M51.82 52.32c.29-.29.58-.48.86-.77 1.15.19 2.11.29 3.36.29.29.1.29-.19 0-.1-.29 0-3.07-.19-3.07-.29l2.01-2.02c0 .1 2.78-.38 2.78-.48.38-.1.29-.19 0-.1-.1.1-2.59.38-2.59.38l1.25-1.83c0 .1 1.44-.48 1.44-.58.19-.1.1-.19-.1-.1l-1.25.38.77-1.54c.1-.19 0-.19-.1-.1 0 .1-.96 2.02-1.06 1.92-.1 0-.19-2.31-.1-2.31 0-.19-.1-.19-.1 0v2.6c.1.1-1.34 1.83-1.44 1.73-.1 0-.58-3.37-.58-3.37 0-.1-.1-.1-.1.1-.1-.1.38 3.37.48 3.56 0 .1-2.11 2.02-2.11 1.92.1 0-.38-3.56-.38-3.65-.1-.29-.1-.19-.1 0 .19 1.25.29 2.5.38 3.85l-.48.38c.13-.06.23.04.23.13z"/></defs><clipPath id="cn"><use xlink:href="#cm" overflow="visible"/></clipPath><g clip-path="url(#cn)"><defs><path id="co" d="M5 5h236v127H5z"/></defs><clipPath id="cp"><use xlink:href="#co" overflow="visible"/></clipPath><path clip-path="url(#cp)" fill="#221f1c" d="M46.62 39.96h16.39v17.36H46.62z"/></g><defs><path id="cq" d="M54.12 53.96c-.58-.29-1.06-.48-1.73-.77v.19c.58.29 1.06.48 1.63.67.19.2.29 0 .1-.09z"/></defs><clipPath id="cr"><use xlink:href="#cq" overflow="visible"/></clipPath><g clip-path="url(#cr)"><defs><path id="cs" d="M5 5h236v127H5z"/></defs><clipPath id="ct"><use xlink:href="#cs" overflow="visible"/></clipPath><path clip-path="url(#ct)" fill="#221f1c" d="M47.39 48.19h11.83v10.95H47.39z"/></g><defs><path id="cu" d="M49.9 50.01c-.1-.1-.1-.1-.1 0 .19.58.38 1.25.48 1.83h.29c-.19-.58-.48-1.25-.67-1.83z"/></defs><clipPath id="cv"><use xlink:href="#cu" overflow="visible"/></clipPath><g clip-path="url(#cv)"><defs><path id="cw" d="M5 5h236v127H5z"/></defs><clipPath id="cx"><use xlink:href="#cw" overflow="visible"/></clipPath><path clip-path="url(#cx)" fill="#221f1c" d="M44.8 44.94h10.77v11.9H44.8z"/></g><defs><path id="cy" d="M58.15 43.95c0-.1.1-.19.1-.29.77-.19 1.44-.38 2.21-.48.48 0 .29-.1 0-.1s-2.11.29-2.11.29.96-2.31.96-2.4c.48-.1 1.92-1.15 1.92-1.15.29-.19.29-.29 0-.1l-1.73.87c.1-.29.48-2.5.48-2.5l.86-.87c.29-.19.19-.29-.1-.1l-.77.58v-1.44c0-.29-.1-.29-.1 0 .1.1 0 1.92-.1 1.92l-.86-1.25c-.19-.38-.29-.29-.1.1 0 0 .86 1.44.96 1.44.1.1-.67 2.6-.67 2.5l-1.44-2.02c-.29-.38-.19-.1-.1.1.38.77.86 1.44 1.34 2.21.1.1-1.06 2.21-1.06 2.21-.38-.58-.77-1.06-1.25-1.64-.29-.19-.1 0-.1.1.48.48.86 1.06 1.15 1.73.32.2.41.29.51.29z"/></defs><clipPath id="cz"><use xlink:href="#cy" overflow="visible"/></clipPath><g clip-path="url(#cz)"><defs><path id="cA" d="M5 5h236v127H5z"/></defs><clipPath id="cB"><use xlink:href="#cA" overflow="visible"/></clipPath><path clip-path="url(#cB)" fill="#221f1c" d="M51.45 31.04h14.98v17.91H51.45z"/></g><g><defs><path id="cC" d="M60.35 35.2c0-.29.1-.48.1-.77.58-.38 1.06-.77 1.63-1.15.1-.1.1-.19 0-.1l-1.53.96.1-2.79 1.44-1.44c.19-.19.1-.29-.1-.1 0 .1-1.34 1.25-1.34 1.25s-.1-2.02-.19-2.02l.77-1.06c.1-.19 0-.29-.1-.1l-.67.87c-.1-.38-.1-.87-.19-1.35 0-.19-.1-.1-.1 0 .1.58.19 1.25.29 1.83-.38-.29-.77-.58-1.06-.96-.19-.19-.19-.1-.1.1.38.48.77.87 1.15 1.25 0 .77 0 1.44.1 2.12-.67-.58-1.73-1.44-1.73-1.44-.38-.38-.19 0-.1.1.58.58 1.15 1.06 1.82 1.54 0 .96-.1 1.92-.19 2.79-.48-.38-.96-.67-1.53-.96-.29-.1-.29 0 0 .1.58.29 1.06.67 1.53 1.06v.1c-.09.17-.09.17 0 .17z"/></defs><clipPath id="cD"><use xlink:href="#cC" overflow="visible"/></clipPath><g clip-path="url(#cD)"><defs><path id="cE" d="M5 5h236v127H5z"/></defs><clipPath id="cF"><use xlink:href="#cE" overflow="visible"/></clipPath><path clip-path="url(#cF)" fill="#221f1c" d="M53.59 22.3h13.6v17.9h-13.6z"/></g></g><g><defs><path id="cG" d="M59.78 26.35c0-.1-.1-.29-.19-.48.38-.48.77-.96 1.15-1.44.19-.19.1-.29-.1-.1l-1.15 1.25c-.29-.67-.58-1.35-.77-2.02.29-.48.58-.96.86-1.44.19-.19 0-.29-.1-.1-.29.38-.58.87-.86 1.25-.38-.58-.67-1.25-1.06-1.92.1-.29.1-.58.19-.77.1-.19 0-.29-.1-.1-.1.29-.19.48-.19.77-.19-.29-.48-.67-.67-.96-.19-.19-.1 0-.1.1.29.38.58.77.86 1.15-.38-.1-.86-.1-1.25-.19-.58-.1-.1.19 0 .19.48.1.86.29 1.44.29.38.67.67 1.44.96 2.12-.77-.1-1.53-.29-2.3-.48-.19-.1-.29 0 0 .1.77.29 1.63.48 2.4.58.29.77.58 1.44.67 2.21-.58-.1-1.06-.19-1.73-.29-.19-.1-.58.1 0 .1.58.1 1.15.19 1.63.48.22-.2.31-.3.41-.3z"/></defs><clipPath id="cH"><use xlink:href="#cG" overflow="visible"/></clipPath><g clip-path="url(#cH)"><defs><path id="cI" d="M5 5h236v127H5z"/></defs><clipPath id="cJ"><use xlink:href="#cI" overflow="visible"/></clipPath><path clip-path="url(#cJ)" fill="#221f1c" d="M51.05 15.21h14.8v16.43h-14.8z"/></g></g><g><defs><path id="cK" d="M56.04 19.33l-.29-.29c.19-.48.38-.96.58-1.35.1-.19 0-.29-.1-.1l-.67 1.25c-.48-.58-.96-1.15-1.44-1.73.19-.48.38-.96.58-1.35.1-.29-.1-.1-.1-.1-.19.38-.38.87-.58 1.25-.38-.38-.86-.87-1.25-1.25V14.6c0-.19-.1-.19-.1 0-.1.29-.1.58-.1.87-.29-.19-.48-.38-.77-.58-.1-.1-.19-.1-.1.1.29.29.58.58.86.87-.29 0-.58.1-.86.1-.29-.1-.29.1 0 .1.38 0 .67 0 1.06-.1.48.48.96.96 1.34 1.44-.48.1-1.15.1-1.63.1-.29 0-.19.1 0 .1.58 0 1.25 0 1.82-.1.38.58.86 1.15 1.34 1.73-.48.1-.96.1-1.44.19-.38 0-.38.1-.1.19l1.63-.1c.13-.08.22-.08.32-.18z"/></defs><clipPath id="cL"><use xlink:href="#cK" overflow="visible"/></clipPath><g clip-path="url(#cL)"><defs><path id="cM" d="M5 5h236v127H5z"/></defs><clipPath id="cN"><use xlink:href="#cM" overflow="visible"/></clipPath><path clip-path="url(#cN)" fill="#221f1c" d="M46.5 9.47h14.86v15.15H46.5z"/></g></g><g><defs><path id="cO" d="M50.95 14.04c-.58-.38-1.06-.67-1.63-1.06-.1-.58-.1-1.06-.19-1.64 0-.29-.1-.1-.1 0 0 .48 0 1.06.1 1.54-.58-.38-1.25-.58-1.92-.87-.1-.29-.19-.67-.29-.96-.1-.19-.19-.19-.1 0 .1.29.1.58.19.87-.29-.1-.58-.19-.86-.29-.19-.1-.29 0 0 .1.38.1.77.29 1.15.38-.38.29-.77.38-1.06.58-.19.1-.19.19.1.1.48-.1.86-.29 1.34-.48.58.29 1.15.58 1.73.87-.38.38-.77.67-1.25.87-.29.1-.19.19.1.1 0 .1 1.44-.77 1.44-.87.38.29.86.58 1.25.87-.09.08-.09-.01 0-.11z"/></defs><clipPath id="cP"><use xlink:href="#cO" overflow="visible"/></clipPath><g clip-path="url(#cP)"><defs><path id="cQ" d="M5 5h236v127H5z"/></defs><clipPath id="cR"><use xlink:href="#cQ" overflow="visible"/></clipPath><path clip-path="url(#cR)" fill="#221f1c" d="M40.97 5.92h14.98v13.26H40.97z"/></g></g><g><defs><path id="cS" d="M51.53 13.94c-.1 0-.1 0-.19.1 0-.38.1-.77.1-1.15 0-.1.1-.19.1 0-.01.29-.01.67-.01 1.05z"/></defs><clipPath id="cT"><use xlink:href="#cS" overflow="visible"/></clipPath><g clip-path="url(#cT)"><defs><path id="cU" d="M5 5h236v127H5z"/></defs><clipPath id="cV"><use xlink:href="#cU" overflow="visible"/></clipPath><path clip-path="url(#cV)" fill="#221f1c" d="M46.34 7.78h10.19v11.27H46.34z"/></g></g><g><defs><path id="cW" d="M50.67 14.62v.19c-.38.19-.67.48-1.06.67-.19.1-.19 0 0-.1.38-.28.77-.47 1.06-.76z"/></defs><clipPath id="cX"><use xlink:href="#cW" overflow="visible"/></clipPath><g clip-path="url(#cX)"><defs><path id="cY" d="M5 5h236v127H5z"/></defs><clipPath id="cZ"><use xlink:href="#cY" overflow="visible"/></clipPath><path clip-path="url(#cZ)" fill="#221f1c" d="M44.47 9.62h11.2v10.91h-11.2z"/></g></g><g><defs><path id="da" d="M38.1 57.23c.29-.19.38-.48.58-.87v.58c-.2.19-.39.19-.58.29z"/></defs><clipPath id="db"><use xlink:href="#da" overflow="visible"/></clipPath><g clip-path="url(#db)"><defs><path id="dc" d="M5 5h236v127H5z"/></defs><clipPath id="dd"><use xlink:href="#dc" overflow="visible"/></clipPath><path clip-path="url(#dd)" fill="#221f1c" d="M33.1 51.36h10.58v10.87H33.1z"/></g></g><g><defs><path id="de" d="M39.25 56.07c.19-.19.38-.48.58-.77 0 .19-.1.48-.1.67-.29.01-.29.01-.48.1z"/></defs><clipPath id="df"><use xlink:href="#de" overflow="visible"/></clipPath><g clip-path="url(#df)"><defs><path id="dg" d="M5 5h236v127H5z"/></defs><clipPath id="dh"><use xlink:href="#dg" overflow="visible"/></clipPath><path clip-path="url(#dh)" fill="#221f1c" d="M34.25 50.3h10.58v10.77H34.25z"/></g></g><g><defs><path id="di" d="M38.39 56.36c.29-.19.38-.48.67-.77 0 0 .1-.19.1-.1 0 .19-.38.48-.38.67-.2.11-.2.11-.39.2z"/></defs><clipPath id="dj"><use xlink:href="#di" overflow="visible"/></clipPath><g clip-path="url(#dj)"><defs><path id="dk" d="M5 5h236v127H5z"/></defs><clipPath id="dl"><use xlink:href="#dk" overflow="visible"/></clipPath><path clip-path="url(#dl)" fill="#221f1c" d="M33.39 50.47h10.77v10.89H33.39z"/></g></g><g><defs><path id="dm" d="M37.43 57.71c.19-.29.38-.58.58-.77 0 .19-.19.38-.29.58-.1 0-.2.09-.29.19z"/></defs><clipPath id="dn"><use xlink:href="#dm" overflow="visible"/></clipPath><g clip-path="url(#dn)"><defs><path id="do" d="M5 5h236v127H5z"/></defs><clipPath id="dp"><use xlink:href="#do" overflow="visible"/></clipPath><path clip-path="url(#dp)" fill="#221f1c" d="M32.43 51.94h10.58v10.77H32.43z"/></g></g><g><defs><path id="dq" d="M38 58.38c.29-.19.38-.67.58-.96 0 .19.1.58.1.77-.2 0-.49.1-.68.19z"/></defs><clipPath id="dr"><use xlink:href="#dq" overflow="visible"/></clipPath><g clip-path="url(#dr)"><defs><path id="ds" d="M5 5h236v127H5z"/></defs><clipPath id="dt"><use xlink:href="#ds" overflow="visible"/></clipPath><path clip-path="url(#dt)" fill="#221f1c" d="M33 52.42h10.67v10.96H33z"/></g></g><g><defs><path id="du" d="M37.23 59.05c.29-.38.29-.77.38-.96 0 .19.1.38.1.58-.19.1-.28.29-.48.38z"/></defs><clipPath id="dv"><use xlink:href="#du" overflow="visible"/></clipPath><g clip-path="url(#dv)"><defs><path id="dw" d="M5 5h236v127H5z"/></defs><clipPath id="dx"><use xlink:href="#dw" overflow="visible"/></clipPath><path clip-path="url(#dx)" fill="#221f1c" d="M32.23 53.09h10.48v10.96H32.23z"/></g></g><g><defs><path id="dy" d="M37.71 60.02c.19-.58 0-.87.1-1.15.1.19.29.67.38.87-.28.08-.38.18-.48.28z"/></defs><clipPath id="dz"><use xlink:href="#dy" overflow="visible"/></clipPath><g clip-path="url(#dz)"><defs><path id="dA" d="M5 5h236v127H5z"/></defs><clipPath id="dB"><use xlink:href="#dA" overflow="visible"/></clipPath><path clip-path="url(#dB)" fill="#221f1c" d="M32.71 53.86h10.48v11.15H32.71z"/></g></g><g><defs><path id="dC" d="M37.23 60.4c.1-.48-.1-.77-.1-1.06.1.19.29.58.29.77-.09.1.01.2-.19.29z"/></defs><clipPath id="dD"><use xlink:href="#dC" overflow="visible"/></clipPath><g clip-path="url(#dD)"><defs><path id="dE" d="M5 5h236v127H5z"/></defs><clipPath id="dF"><use xlink:href="#dE" overflow="visible"/></clipPath><path clip-path="url(#dF)" fill="#221f1c" d="M32.14 54.34h10.29V65.4H32.14z"/></g></g><g><defs><path id="dG" d="M37.81 61.07c-.1-.48-.19-.48-.1-.77 0 .19.38.38.38.58-.18.1-.18.1-.28.19z"/></defs><clipPath id="dH"><use xlink:href="#dG" overflow="visible"/></clipPath><g clip-path="url(#dH)"><defs><path id="dI" d="M5 5h236v127H5z"/></defs><clipPath id="dJ"><use xlink:href="#dI" overflow="visible"/></clipPath><path clip-path="url(#dJ)" fill="#221f1c" d="M32.67 55.31h10.42v10.77H32.67z"/></g></g><g><defs><path id="dK" d="M38.1 62.04c-.1-.38-.19-.38-.19-.67.1.1.29.19.58.38-.3.19-.2.19-.39.29z"/></defs><clipPath id="dL"><use xlink:href="#dK" overflow="visible"/></clipPath><g clip-path="url(#dL)"><defs><path id="dM" d="M5 5h236v127H5z"/></defs><clipPath id="dN"><use xlink:href="#dM" overflow="visible"/></clipPath><path clip-path="url(#dN)" fill="#221f1c" d="M32.91 56.36h10.58v10.67H32.91z"/></g></g><g><defs><path id="dO" d="M38.29 60.79c0-.48-.1-.58 0-.77 0 .19.29.38.48.58-.1-.01-.29.09-.48.19z"/></defs><clipPath id="dP"><use xlink:href="#dO" overflow="visible"/></clipPath><g clip-path="url(#dP)"><defs><path id="dQ" d="M5 5h236v127H5z"/></defs><clipPath id="dR"><use xlink:href="#dQ" overflow="visible"/></clipPath><path clip-path="url(#dR)" fill="#221f1c" d="M33.25 55.02h10.52v10.77H33.25z"/></g></g><g><defs><path id="dS" d="M39.06 61.46c0-.48-.1-.58 0-.77.1.19.38.38.58.67-.2 0-.49 0-.58.1z"/></defs><clipPath id="dT"><use xlink:href="#dS" overflow="visible"/></clipPath><g clip-path="url(#dT)"><defs><path id="dU" d="M5 5h236v127H5z"/></defs><clipPath id="dV"><use xlink:href="#dU" overflow="visible"/></clipPath><path clip-path="url(#dV)" fill="#221f1c" d="M34.01 55.69h10.62v10.77H34.01z"/></g></g><g><defs><path id="dW" d="M38.48 61.84c0-.48-.19-.58-.19-.77.1.1.48.38.58.58-.2 0-.29 0-.39.19z"/></defs><clipPath id="dX"><use xlink:href="#dW" overflow="visible"/></clipPath><g clip-path="url(#dX)"><defs><path id="dY" d="M5 5h236v127H5z"/></defs><clipPath id="dZ"><use xlink:href="#dY" overflow="visible"/></clipPath><path clip-path="url(#dZ)" fill="#221f1c" d="M33.29 56.07h10.58v10.77H33.29z"/></g></g><g><defs><path id="ea" d="M39.15 60.5c.1-.48.1-.67.19-.87.1.19.29.58.38.77-.28 0-.47-.09-.57.1z"/></defs><clipPath id="eb"><use xlink:href="#ea" overflow="visible"/></clipPath><g clip-path="url(#eb)"><defs><path id="ec" d="M5 5h236v127H5z"/></defs><clipPath id="ed"><use xlink:href="#ec" overflow="visible"/></clipPath><path clip-path="url(#ed)" fill="#221f1c" d="M34.15 54.63h10.58V65.5H34.15z"/></g></g><g><defs><path id="ee" d="M40.02 60.31c.1-.48.19-.67.29-.87.1.19.29.58.38.87-.19 0-.48-.1-.67 0z"/></defs><clipPath id="ef"><use xlink:href="#ee" overflow="visible"/></clipPath><g clip-path="url(#ef)"><defs><path id="eg" d="M5 5h236v127H5z"/></defs><clipPath id="eh"><use xlink:href="#eg" overflow="visible"/></clipPath><path clip-path="url(#eh)" fill="#221f1c" d="M35.02 54.44h10.67v10.87H35.02z"/></g></g><g><defs><path id="ei" d="M39.82 61.27c.1-.48 0-.58.1-.77.1.19.48.58.58.77h-.68z"/></defs><clipPath id="ej"><use xlink:href="#ei" overflow="visible"/></clipPath><g clip-path="url(#ej)"><defs><path id="ek" d="M5 5h236v127H5z"/></defs><clipPath id="el"><use xlink:href="#ek" overflow="visible"/></clipPath><path clip-path="url(#el)" fill="#221f1c" d="M34.82 55.5h10.67v10.77H34.82z"/></g></g><g><defs><path id="em" d="M40.78 61.27c.1-.48.1-.48.19-.77 0 .19.38.58.48.77-.19.09-.47-.1-.67 0z"/></defs><clipPath id="en"><use xlink:href="#em" overflow="visible"/></clipPath><g clip-path="url(#en)"><defs><path id="eo" d="M5 5h236v127H5z"/></defs><clipPath id="ep"><use xlink:href="#eo" overflow="visible"/></clipPath><path clip-path="url(#ep)" fill="#221f1c" d="M35.78 55.5h10.67v10.8H35.78z"/></g></g><g><defs><path id="eq" d="M41.74 61.36c.1-.38.1-.48.19-.77.1.1.38.67.48.87-.19 0-.57-.19-.67-.1z"/></defs><clipPath id="er"><use xlink:href="#eq" overflow="visible"/></clipPath><g clip-path="url(#er)"><defs><path id="es" d="M5 5h236v127H5z"/></defs><clipPath id="et"><use xlink:href="#es" overflow="visible"/></clipPath><path clip-path="url(#et)" fill="#221f1c" d="M36.74 55.59h10.67v10.87H36.74z"/></g></g><g><defs><path id="eu" d="M41.17 60.21c.19-.38.29-.58.29-.87.1.1.29.67.29.87-.2.1-.49 0-.58 0z"/></defs><clipPath id="ev"><use xlink:href="#eu" overflow="visible"/></clipPath><g clip-path="url(#ev)"><defs><path id="ew" d="M5 5h236v127H5z"/></defs><clipPath id="ex"><use xlink:href="#ew" overflow="visible"/></clipPath><path clip-path="url(#ex)" fill="#221f1c" d="M36.17 54.34h10.58v10.91H36.17z"/></g></g><g><defs><path id="ey" d="M41.93 60.4c.19-.48.29-.58.29-.77.1.1.29.67.29.87-.1 0-.38-.19-.58-.1z"/></defs><clipPath id="ez"><use xlink:href="#ey" overflow="visible"/></clipPath><g clip-path="url(#ez)"><defs><path id="eA" d="M5 5h236v127H5z"/></defs><clipPath id="eB"><use xlink:href="#eA" overflow="visible"/></clipPath><path clip-path="url(#eB)" fill="#221f1c" d="M36.93 54.63h10.58V65.5H36.93z"/></g></g><g><defs><path id="eC" d="M37.52 61.36c-.1-.48-.19-.29-.19-.58 0 .1.29.19.38.38-.19.11-.09.11-.19.2z"/></defs><clipPath id="eD"><use xlink:href="#eC" overflow="visible"/></clipPath><g clip-path="url(#eD)"><defs><path id="eE" d="M5 5h236v127H5z"/></defs><clipPath id="eF"><use xlink:href="#eE" overflow="visible"/></clipPath><path clip-path="url(#eF)" fill="#221f1c" d="M32.33 55.79h10.38v10.58H32.33z"/></g></g><g><defs><path id="eG" d="M38.48 59.54c.19-.48.29-.87.29-1.06 0 .19.19.77.29.87-.19.09-.48.09-.58.19z"/></defs><clipPath id="eH"><use xlink:href="#eG" overflow="visible"/></clipPath><g clip-path="url(#eH)"><defs><path id="eI" d="M5 5h236v127H5z"/></defs><clipPath id="eJ"><use xlink:href="#eI" overflow="visible"/></clipPath><path clip-path="url(#eJ)" fill="#221f1c" d="M33.48 53.48h10.58v11.06H33.48z"/></g></g><g><defs><path id="eK" d="M39.54 59.25c.19-.48.38-.77.48-1.06.1.19.19.77.29.96-.29 0-.68 0-.77.1z"/></defs><clipPath id="eL"><use xlink:href="#eK" overflow="visible"/></clipPath><g clip-path="url(#eL)"><defs><path id="eM" d="M5 5h236v127H5z"/></defs><clipPath id="eN"><use xlink:href="#eM" overflow="visible"/></clipPath><path clip-path="url(#eN)" fill="#221f1c" d="M34.54 53.19h10.77v11.06H34.54z"/></g></g><g><defs><path id="eO" d="M40.59 59.15c.29-.38.48-.77.58-.96.1.19.19.87.19.96-.29 0-.58-.1-.77 0z"/></defs><clipPath id="eP"><use xlink:href="#eO" overflow="visible"/></clipPath><g clip-path="url(#eP)"><defs><path id="eQ" d="M5 5h236v127H5z"/></defs><clipPath id="eR"><use xlink:href="#eQ" overflow="visible"/></clipPath><path clip-path="url(#eR)" fill="#221f1c" d="M35.59 53.19h10.77v10.96H35.59z"/></g></g><g><defs><path id="eS" d="M41.65 59.25c.29-.38.38-.67.38-.87.19.19.19.87.19 1.06-.19-.1-.38-.29-.57-.19z"/></defs><clipPath id="eT"><use xlink:href="#eS" overflow="visible"/></clipPath><g clip-path="url(#eT)"><defs><path id="eU" d="M5 5h236v127H5z"/></defs><clipPath id="eV"><use xlink:href="#eU" overflow="visible"/></clipPath><path clip-path="url(#eV)" fill="#221f1c" d="M36.65 53.38h10.58v11.06H36.65z"/></g></g><g><defs><path id="eW" d="M42.51 59.34c.19-.38.19-.58.29-.87.19.19.19.87.19 1.06a.68.68 0 0 1-.48-.19z"/></defs><clipPath id="eX"><use xlink:href="#eW" overflow="visible"/></clipPath><g clip-path="url(#eX)"><defs><path id="eY" d="M5 5h236v127H5z"/></defs><clipPath id="eZ"><use xlink:href="#eY" overflow="visible"/></clipPath><path clip-path="url(#eZ)" fill="#221f1c" d="M37.51 53.48h10.48v11.06H37.51z"/></g></g><g><defs><path id="fa" d="M43.28 59.73c.19-.38.1-.67.19-.96.19.19.19.96.19 1.15-.29-.1-.29-.19-.38-.19z"/></defs><clipPath id="fb"><use xlink:href="#fa" overflow="visible"/></clipPath><g clip-path="url(#fb)"><defs><path id="fc" d="M5 5h236v127H5z"/></defs><clipPath id="fd"><use xlink:href="#fc" overflow="visible"/></clipPath><path clip-path="url(#fd)" fill="#221f1c" d="M38.28 53.77h10.38v11.15H38.28z"/></g></g><g><defs><path id="fe" d="M42.8 60.69c.19-.48.19-.48.19-.67.19.19.19.77.19.96-.09-.19-.19-.29-.38-.29z"/></defs><clipPath id="ff"><use xlink:href="#fe" overflow="visible"/></clipPath><g clip-path="url(#ff)"><defs><path id="fg" d="M5 5h236v127H5z"/></defs><clipPath id="fh"><use xlink:href="#fg" overflow="visible"/></clipPath><path clip-path="url(#fh)" fill="#221f1c" d="M37.8 55.02h10.38v10.96H37.8z"/></g></g><g><defs><path id="fi" d="M42.51 61.56c.1-.38.1-.48.19-.77.19.19.19.77.19.96-.19 0-.28-.1-.38-.19z"/></defs><clipPath id="fj"><use xlink:href="#fi" overflow="visible"/></clipPath><g clip-path="url(#fj)"><defs><path id="fk" d="M5 5h236v127H5z"/></defs><clipPath id="fl"><use xlink:href="#fk" overflow="visible"/></clipPath><path clip-path="url(#fl)" fill="#221f1c" d="M37.51 55.79h10.38v10.96H37.51z"/></g></g><g><defs><path id="fm" d="M43.66 59.92c.19-.38 0-.58.1-.87.19.19.1.96.1 1.15-.1-.09-.1-.18-.2-.28z"/></defs><clipPath id="fn"><use xlink:href="#fm" overflow="visible"/></clipPath><g clip-path="url(#fn)"><defs><path id="fo" d="M5 5h236v127H5z"/></defs><clipPath id="fp"><use xlink:href="#fo" overflow="visible"/></clipPath><path clip-path="url(#fp)" fill="#221f1c" d="M38.66 54.05h10.22V65.2H38.66z"/></g></g><g><defs><path id="fq" d="M43.47 60.98c.1-.38.1-.38.19-.67.19.19.1.67.1.87-.29-.11-.29-.11-.29-.2z"/></defs><clipPath id="fr"><use xlink:href="#fq" overflow="visible"/></clipPath><g clip-path="url(#fr)"><defs><path id="fs" d="M5 5h236v127H5z"/></defs><clipPath id="ft"><use xlink:href="#fs" overflow="visible"/></clipPath><path clip-path="url(#ft)" fill="#221f1c" d="M38.47 55.31h10.31v10.87H38.47z"/></g></g><g><defs><path id="fu" d="M42.99 61.84c.29-.29.1-.29.38-.58.1.29-.1.67-.1.87-.18-.19-.18-.19-.28-.29z"/></defs><clipPath id="fv"><use xlink:href="#fu" overflow="visible"/></clipPath><g clip-path="url(#fv)"><defs><path id="fw" d="M5 5h236v127H5z"/></defs><clipPath id="fx"><use xlink:href="#fw" overflow="visible"/></clipPath><path clip-path="url(#fx)" fill="#221f1c" d="M37.99 56.27H48.4v10.87H37.99z"/></g></g><g><defs><path id="fy" d="M43.85 58.77c0-.38-.1-.38-.1-.67.19.19.19.58.19.77-.09-.1.11-.01-.09-.1z"/></defs><clipPath id="fz"><use xlink:href="#fy" overflow="visible"/></clipPath><g clip-path="url(#fz)"><defs><path id="fA" d="M5 5h236v127H5z"/></defs><clipPath id="fB"><use xlink:href="#fA" overflow="visible"/></clipPath><path clip-path="url(#fB)" fill="#221f1c" d="M38.76 53.09h10.19v10.77H38.76z"/></g></g><g><defs><path id="fC" d="M39.06 56.94c.19-.19.38-.48.58-.77v.67c-.2 0-.39 0-.58.1z"/></defs><clipPath id="fD"><use xlink:href="#fC" overflow="visible"/></clipPath><g clip-path="url(#fD)"><defs><path id="fE" d="M5 5h236v127H5z"/></defs><clipPath id="fF"><use xlink:href="#fE" overflow="visible"/></clipPath><path clip-path="url(#fF)" fill="#221f1c" d="M34.06 51.17h10.58v10.77H34.06z"/></g></g><g><defs><path id="fG" d="M40.21 56.75c.19-.19.19-.29.29-.67.1.1.29.48.29.67-.1 0-.39-.1-.58 0z"/></defs><clipPath id="fH"><use xlink:href="#fG" overflow="visible"/></clipPath><g clip-path="url(#fH)"><defs><path id="fI" d="M5 5h236v127H5z"/></defs><clipPath id="fJ"><use xlink:href="#fI" overflow="visible"/></clipPath><path clip-path="url(#fJ)" fill="#221f1c" d="M35.21 51.07h10.58v10.67H35.21z"/></g></g><g><defs><path id="fK" d="M40.02 55.88c.19-.19.19-.38.29-.77.1.1.1.48.1.67-.11.1-.2 0-.39.1z"/></defs><clipPath id="fL"><use xlink:href="#fK" overflow="visible"/></clipPath><g clip-path="url(#fL)"><defs><path id="fM" d="M5 5h236v127H5z"/></defs><clipPath id="fN"><use xlink:href="#fM" overflow="visible"/></clipPath><path clip-path="url(#fN)" fill="#221f1c" d="M35.02 50.11H45.4v10.77H35.02z"/></g></g><g><defs><path id="fO" d="M40.88 55.78c.19-.29.1-.38.1-.67.1.1.38.58.38.77-.1 0-.29-.1-.48-.1z"/></defs><clipPath id="fP"><use xlink:href="#fO" overflow="visible"/></clipPath><g clip-path="url(#fP)"><defs><path id="fQ" d="M5 5h236v127H5z"/></defs><clipPath id="fR"><use xlink:href="#fQ" overflow="visible"/></clipPath><path clip-path="url(#fR)" fill="#221f1c" d="M35.88 50.11h10.48v10.77H35.88z"/></g></g><g><defs><path id="fS" d="M41.17 56.75c.19-.19.19-.38.38-.58.1.1.19.48.19.67-.19-.09-.38-.19-.57-.09z"/></defs><clipPath id="fT"><use xlink:href="#fS" overflow="visible"/></clipPath><g clip-path="url(#fT)"><defs><path id="fU" d="M5 5h236v127H5z"/></defs><clipPath id="fV"><use xlink:href="#fU" overflow="visible"/></clipPath><path clip-path="url(#fV)" fill="#221f1c" d="M36.17 51.17h10.58v10.67H36.17z"/></g></g><g><defs><path id="fW" d="M41.65 55.88c.1-.19.1-.48.1-.58.1.1.38.48.29.67-.2.01-.2-.09-.39-.09z"/></defs><clipPath id="fX"><use xlink:href="#fW" overflow="visible"/></clipPath><g clip-path="url(#fX)"><defs><path id="fY" d="M5 5h236v127H5z"/></defs><clipPath id="fZ"><use xlink:href="#fY" overflow="visible"/></clipPath><path clip-path="url(#fZ)" fill="#221f1c" d="M36.65 50.3h10.4v10.67h-10.4z"/></g></g><g><defs><path id="ga" d="M42.22 56.07c.1-.19.1-.38.1-.58.1.1.29.48.29.67-.1.01-.2-.09-.39-.09z"/></defs><clipPath id="gb"><use xlink:href="#ga" overflow="visible"/></clipPath><g clip-path="url(#gb)"><defs><path id="gc" d="M5 5h236v127H5z"/></defs><clipPath id="gd"><use xlink:href="#gc" overflow="visible"/></clipPath><path clip-path="url(#gd)" fill="#221f1c" d="M37.22 50.5H47.6v10.67H37.22z"/></g></g><g><defs><path id="ge" d="M42.7 56.27c.1-.29 0-.29 0-.38.1.1.19.38.19.58 0-.2 0-.2-.19-.2z"/></defs><clipPath id="gf"><use xlink:href="#ge" overflow="visible"/></clipPath><g clip-path="url(#gf)"><defs><path id="gg" d="M5 5h236v127H5z"/></defs><clipPath id="gh"><use xlink:href="#gg" overflow="visible"/></clipPath><path clip-path="url(#gh)" fill="#221f1c" d="M37.7 50.88h10.19v10.58H37.7z"/></g></g><g><defs><path id="gi" d="M43.18 56.46c0-.29-.1-.1-.1-.29.1.1.19.19.29.38-.09-.09-.09-.09-.19-.09z"/></defs><clipPath id="gj"><use xlink:href="#gi" overflow="visible"/></clipPath><g clip-path="url(#gj)"><defs><path id="gk" d="M5 5h236v127H5z"/></defs><clipPath id="gl"><use xlink:href="#gk" overflow="visible"/></clipPath><path clip-path="url(#gl)" fill="#221f1c" d="M38.09 51.17h10.29v10.38H38.09z"/></g></g><g><defs><path id="gm" d="M41.93 56.84c.1-.19.1-.29.19-.58.1.1.29.48.29.67-.19.01-.28-.09-.48-.09z"/></defs><clipPath id="gn"><use xlink:href="#gm" overflow="visible"/></clipPath><g clip-path="url(#gn)"><defs><path id="go" d="M5 5h236v127H5z"/></defs><clipPath id="gp"><use xlink:href="#go" overflow="visible"/></clipPath><path clip-path="url(#gp)" fill="#221f1c" d="M36.93 51.27h10.48v10.67H36.93z"/></g></g><g><defs><path id="gq" d="M42.61 57.04c.1-.19.1-.29.19-.58.1.1.19.48.19.67-.19 0-.29 0-.38-.09z"/></defs><clipPath id="gr"><use xlink:href="#gq" overflow="visible"/></clipPath><g clip-path="url(#gr)"><defs><path id="gs" d="M5 5h236v127H5z"/></defs><clipPath id="gt"><use xlink:href="#gs" overflow="visible"/></clipPath><path clip-path="url(#gt)" fill="#221f1c" d="M37.61 51.46h10.38v10.67H37.61z"/></g></g><g><defs><path id="gu" d="M43.18 57.23c.1-.19 0-.29.1-.48.1.1.19.48.19.67-.19-.1-.19-.1-.29-.19z"/></defs><clipPath id="gv"><use xlink:href="#gu" overflow="visible"/></clipPath><g clip-path="url(#gv)"><defs><path id="gw" d="M5 5h236v127H5z"/></defs><clipPath id="gx"><use xlink:href="#gw" overflow="visible"/></clipPath><path clip-path="url(#gx)" fill="#221f1c" d="M38.18 51.75h10.29v10.67H38.18z"/></g></g><g><defs><path id="gy" d="M40.3 57.9c.19-.19.38-.58.58-.87.1.1.19.67.19.87-.19 0-.57-.1-.77 0z"/></defs><clipPath id="gz"><use xlink:href="#gy" overflow="visible"/></clipPath><g clip-path="url(#gz)"><defs><path id="gA" d="M5 5h236v127H5z"/></defs><clipPath id="gB"><use xlink:href="#gA" overflow="visible"/></clipPath><path clip-path="url(#gB)" fill="#221f1c" d="M35.3 52.04h10.77v10.87H35.3z"/></g></g><g><defs><path id="gC" d="M41.46 57.9c.19-.19.29-.48.38-.77.1.1.29.67.19.87-.19 0-.48-.1-.57-.1z"/></defs><clipPath id="gD"><use xlink:href="#gC" overflow="visible"/></clipPath><g clip-path="url(#gD)"><defs><path id="gE" d="M5 5h236v127H5z"/></defs><clipPath id="gF"><use xlink:href="#gE" overflow="visible"/></clipPath><path clip-path="url(#gF)" fill="#221f1c" d="M36.46 52.13h10.6V63h-10.6z"/></g></g><g><defs><path id="gG" d="M42.22 58c.19-.19.19-.38.29-.77.1.1.19.67.19.87-.19.09-.38-.01-.48-.1z"/></defs><clipPath id="gH"><use xlink:href="#gG" overflow="visible"/></clipPath><g clip-path="url(#gH)"><defs><path id="gI" d="M5 5h236v127H5z"/></defs><clipPath id="gJ"><use xlink:href="#gI" overflow="visible"/></clipPath><path clip-path="url(#gJ)" fill="#221f1c" d="M37.22 52.23H47.7v10.91H37.22z"/></g></g><g><defs><path id="gK" d="M42.89 58.19c.1-.29.1-.38.19-.67.1.1.19.67.19.87-.09-.1-.28-.1-.38-.2z"/></defs><clipPath id="gL"><use xlink:href="#gK" overflow="visible"/></clipPath><g clip-path="url(#gL)"><defs><path id="gM" d="M5 5h236v127H5z"/></defs><clipPath id="gN"><use xlink:href="#gM" overflow="visible"/></clipPath><path clip-path="url(#gN)" fill="#221f1c" d="M37.89 52.52h10.38v10.87H37.89z"/></g></g><g><defs><path id="gO" d="M43.47 58.48c.1-.29 0-.38.1-.67.1.1.19.58.19.87-.1-.01-.19-.11-.29-.2z"/></defs><clipPath id="gP"><use xlink:href="#gO" overflow="visible"/></clipPath><g clip-path="url(#gP)"><defs><path id="gQ" d="M5 5h236v127H5z"/></defs><clipPath id="gR"><use xlink:href="#gQ" overflow="visible"/></clipPath><path clip-path="url(#gR)" fill="#221f1c" d="M38.47 52.8h10.29v10.87H38.47z"/></g></g><g><defs><path id="gS" d="M39.06 58.09c.29-.19.58-.67.67-1.06 0 .19.1.58.1.87-.1.1-.58.1-.77.19z"/></defs><clipPath id="gT"><use xlink:href="#gS" overflow="visible"/></clipPath><g clip-path="url(#gT)"><defs><path id="gU" d="M5 5h236v127H5z"/></defs><clipPath id="gV"><use xlink:href="#gU" overflow="visible"/></clipPath><path clip-path="url(#gV)" fill="#221f1c" d="M34.06 52.04h10.77V63.1H34.06z"/></g></g><g><defs><path id="gW" d="M43.57 57.04c0 .19.1.29.1.48 0 0 .1 0 .1.1-.01-.2-.11-.39-.2-.58z"/></defs><clipPath id="gX"><use xlink:href="#gW" overflow="visible"/></clipPath><g clip-path="url(#gX)"><defs><path id="gY" d="M5 5h236v127H5z"/></defs><clipPath id="gZ"><use xlink:href="#gY" overflow="visible"/></clipPath><path clip-path="url(#gZ)" fill="#221f1c" d="M38.57 52.04h10.19v10.58H38.57z"/></g></g><g><defs><path id="ha" d="M39.15 8.56c.19-.67-.86-1.25-1.06-.58 0 .67 0 .77-.38 1.35-.38.58.67.77 1.06.19-.29.19-.58.19-.77-.1.38-.1.67-.87.48-1.25.29-.19.58.1.67.39z"/></defs><clipPath id="hb"><use xlink:href="#ha" overflow="visible"/></clipPath><g clip-path="url(#hb)"><defs><path id="hc" d="M5 5h236v127H5z"/></defs><clipPath id="hd"><use xlink:href="#hc" overflow="visible"/></clipPath><path clip-path="url(#hd)" fill="#221f1c" d="M32.63 2.68h11.54v12.19H32.63z"/></g></g><g><defs><path id="he" d="M41.17 7.79c.77-.1.86-1.25.19-1.15-.58.29-.67.19-1.34.1-.67-.1-.48.96.19 1.06-.19-.19-.38-.48-.19-.77.29.29 1.06.38 1.34 0 .29.09.1.57-.19.76z"/></defs><clipPath id="hf"><use xlink:href="#he" overflow="visible"/></clipPath><g clip-path="url(#hf)"><defs><path id="hg" d="M5 5h236v127H5z"/></defs><clipPath id="hh"><use xlink:href="#hg" overflow="visible"/></clipPath><path clip-path="url(#hh)" fill="#221f1c" d="M34.6 1.63h12.21v11.16H34.6z"/></g></g><g><defs><path id="hi" d="M42.51 9.42c.29.67 1.44.48 1.15-.1-.38-.58-.38-.58-.38-1.25-.1-.58-1.06-.1-.96.58.1-.29.29-.48.67-.38-.19.38 0 1.06.38 1.25-.19.29-.57.19-.86-.1z"/></defs><clipPath id="hj"><use xlink:href="#hi" overflow="visible"/></clipPath><g clip-path="url(#hj)"><defs><path id="hk" d="M5 5h236v127H5z"/></defs><clipPath id="hl"><use xlink:href="#hk" overflow="visible"/></clipPath><path clip-path="url(#hl)" fill="#221f1c" d="M37.31 2.82h11.4v12.03h-11.4z"/></g></g><g><defs><path id="hm" d="M41.46 11.44c-.58.48 0 1.54.58 1.06.38-.58.48-.58 1.06-.77.58-.38-.29-1.06-.86-.77.29 0 .67.1.67.48-.48-.1-1.15.29-1.15.77-.4 0-.5-.48-.3-.77z"/></defs><clipPath id="hn"><use xlink:href="#hm" overflow="visible"/></clipPath><g clip-path="url(#hn)"><defs><path id="ho" d="M5 5h236v127H5z"/></defs><clipPath id="hp"><use xlink:href="#ho" overflow="visible"/></clipPath><path clip-path="url(#hp)" fill="#221f1c" d="M36.22 5.89h12.06v11.73H36.22z"/></g></g><g><defs><path id="hq" d="M39.25 10.77c-.67-.38-1.44.48-.77.87.67.1.67.29 1.15.77.48.48.86-.58.38-1.06.1.29.1.58-.29.77-.1-.38-.67-.87-1.06-.77-.08-.39.3-.58.59-.58z"/></defs><clipPath id="hr"><use xlink:href="#hq" overflow="visible"/></clipPath><g clip-path="url(#hr)"><defs><path id="hs" d="M5 5h236v127H5z"/></defs><clipPath id="ht"><use xlink:href="#hs" overflow="visible"/></clipPath><path clip-path="url(#ht)" fill="#221f1c" d="M33.22 5.67h12.01v11.85H33.22z"/></g></g><g><defs><path id="hu" d="M40.3 13.37c.19.1.38.29.38.38.1-.19.29-.38.58-.38-.29-.19-.38-.38-.58-.67-.09.28-.28.48-.38.67zm-2.87-2.02c.1-.38.29-.58.58-.77-.38 0-.67-.1-.86-.29 0 .29-.1.48-.19.67.18-.09.37.1.47.39zm6.62 0c-.1-.1.58-.38.58-.38s-.19-.38-.19-.58c-.19.19-.48.29-.67.29.08.09.28.38.28.67zm-1.64-4.23c0-.1.86-.29.77-.29-.1 0-.19-.38-.19-.67-.1.19-.38.19-.67.1.19.28.19.57.09.86zm-3.45 0c-.1-.29 0-.58.1-.96-.19.1-.38.19-.67.1-.1.29-.1.48-.29.58-.1-.01.86.18.86.28zm.38 2.98c-4.03 1.35 1.25 5.58 1.34 1.06-.1 4.33 5.76.67 1.34-1.06 4.13 1.64 2.11-5.29-.48-1.64 2.59-3.85-4.32-3.37-1.63-.1-2.96-3.55-4.5 3.08-.57 1.74zm-2.3 1.25c-.58-.19-.77-.58-.29-.96-.77-1.73-.19-2.98 1.15-3.75-.1-.67.19-.87.86-.58 1.25-1.15 2.49-1.15 3.84-.1.67-.29.96-.1.86.67 1.53.96 1.92 2.21 1.15 3.75.48.48.58.96-.19 1.06 0 1.35-2.21 2.79-3.17 2.31-.48.96-.96.19-1.06 0-1.61 0-2.76-.48-3.15-2.4z"/></defs><clipPath id="hv"><use xlink:href="#hu" overflow="visible"/></clipPath><g clip-path="url(#hv)"><defs><path id="hw" d="M5 5h236v127H5z"/></defs><clipPath id="hx"><use xlink:href="#hw" overflow="visible"/></clipPath><path clip-path="url(#hx)" fill="#221f1c" d="M31.41.18H50v19.05H31.41z"/></g></g><g><defs><path id="hy" d="M41.26 9.81c-.19-.19-.38-.38-.29-.67-.19.1-.48.1-.67 0 0 0 .1.38-.19.67.29 0 .48.19.58.38 0-.09.38-.38.57-.38zm-.57-2.21c.1.96.86 1.44 1.82 1.44-1.34.77-.67 2.21-.67 2.31-.77-.67-1.53-.77-2.3 0 .48-.96.29-1.83-.77-2.31.86.29 2.21-.87 1.92-1.44z"/></defs><clipPath id="hz"><use xlink:href="#hy" overflow="visible"/></clipPath><g clip-path="url(#hz)"><defs><path id="hA" d="M5 5h236v127H5z"/></defs><clipPath id="hB"><use xlink:href="#hA" overflow="visible"/></clipPath><path clip-path="url(#hB)" fill="#221f1c" d="M33.77 2.6h13.74v13.75H33.77z"/></g></g><g><defs><path id="hC" d="M45.58 18.75s-.1 0 0 0"/></defs><clipPath id="hD"><use xlink:href="#hC" overflow="visible"/></clipPath><g clip-path="url(#hD)"><defs><path id="hE" d="M5 5h236v127H5z"/></defs><clipPath id="hF"><use xlink:href="#hE" overflow="visible"/></clipPath><path clip-path="url(#hF)" fill="#221f1c" d="M40.54 13.75h10.04v10H40.54z"/></g></g><g><defs><path id="hG" d="M47.88 20.29c-.09-.09-.09 0 0 0"/></defs><clipPath id="hH"><use xlink:href="#hG" overflow="visible"/></clipPath><g clip-path="url(#hH)"><defs><path id="hI" d="M5 5h236v127H5z"/></defs><clipPath id="hJ"><use xlink:href="#hI" overflow="visible"/></clipPath><path clip-path="url(#hJ)" fill="#221f1c" d="M42.81 15.25h10.07v10.04H42.81z"/></g></g><g><defs><path id="hK" d="M30.42 57.23c.58.19 2.11.58 3.26 1.44 1.53 1.06 2.01 1.54 3.07 1.44"/></defs><clipPath id="hL"><use xlink:href="#hK" overflow="visible"/></clipPath><g clip-path="url(#hL)"><defs><path id="hM" d="M5 5h236v127H5z"/></defs><clipPath id="hN"><use xlink:href="#hM" overflow="visible"/></clipPath><path clip-path="url(#hN)" fill="#221f1c" d="M25.42 52.23h16.33v12.9H25.42z"/></g></g><g><defs><path id="hO" d="M27.07 64.44c.67.19 3.93-.29 5.37-1.44 1.63-.96 3.55-1.73 4.6-2.02"/></defs><clipPath id="hP"><use xlink:href="#hO" overflow="visible"/></clipPath><g clip-path="url(#hP)"><defs><path id="hQ" d="M5 5h236v127H5z"/></defs><clipPath id="hR"><use xlink:href="#hQ" overflow="visible"/></clipPath><path clip-path="url(#hR)" fill="#221f1c" d="M22.07 55.98h19.98v13.5H22.07z"/></g></g><g><defs><path id="hS" d="M32.34 68.48c2.59-.67 5.85-3.85 6.62-5.29"/></defs><clipPath id="hT"><use xlink:href="#hS" overflow="visible"/></clipPath><g clip-path="url(#hT)"><defs><path id="hU" d="M5 5h236v127H5z"/></defs><clipPath id="hV"><use xlink:href="#hU" overflow="visible"/></clipPath><path clip-path="url(#hV)" fill="#221f1c" d="M27.34 58.19h16.62v15.29H27.34z"/></g></g><g><defs><path id="hW" d="M50.86 57.23c-.58.19-2.11.58-3.26 1.44-1.53 1.06-1.92 1.54-3.07 1.44"/></defs><clipPath id="hX"><use xlink:href="#hW" overflow="visible"/></clipPath><g clip-path="url(#hX)"><defs><path id="hY" d="M5 5h236v127H5z"/></defs><clipPath id="hZ"><use xlink:href="#hY" overflow="visible"/></clipPath><path clip-path="url(#hZ)" fill="#221f1c" d="M39.53 52.23h16.33v12.9H39.53z"/></g></g><g><defs><path id="ia" d="M54.21 64.44c-.67.19-3.93-.29-5.37-1.44-1.63-.96-3.55-1.73-4.51-2.02"/></defs><clipPath id="ib"><use xlink:href="#ia" overflow="visible"/></clipPath><g clip-path="url(#ib)"><defs><path id="ic" d="M5 5h236v127H5z"/></defs><clipPath id="id"><use xlink:href="#ic" overflow="visible"/></clipPath><path clip-path="url(#id)" fill="#221f1c" d="M39.33 55.98h19.88v13.5H39.33z"/></g></g><g><defs><path id="ie" d="M48.84 68.48c-2.59-.67-5.76-3.85-6.72-5.29"/></defs><clipPath id="if"><use xlink:href="#ie" overflow="visible"/></clipPath><g clip-path="url(#if)"><defs><path id="ig" d="M5 5h236v127H5z"/></defs><clipPath id="ih"><use xlink:href="#ig" overflow="visible"/></clipPath><path clip-path="url(#ih)" fill="#221f1c" d="M37.13 58.19h16.72v15.29H37.13z"/></g></g><g><defs><path id="ii" d="M45.68 48.38l-2.21-2.12 2.11-2.12h-1.25l-1.63 1.73v-1.73h-.86v4.23h.86v-1.83l1.73 1.83h1.25zm-5.18-1.83v-2.31h-.86v2.31c0 .77-.48 1.15-1.06 1.15s-1.06-.38-1.06-1.15v-2.31h-.86v2.31c0 1.15.77 2.02 2.01 2.02a2 2 0 0 0 1.83-2.02zm7.57-11.73v-.29c-.58.67-1.92 2.4-2.49 2.98.58.58.29 1.15-.1 1.73-.38.67-1.34 1.25-2.3 1.25-.58 0-1.06-.19-1.53-.58-.29-.19-.48-.29-.67-.29-.19 0-.38.1-.67.29-.38.38-.96.58-1.53.58-.86 0-1.63-.38-2.21-1.06-.48-.38-.67-.77-.67-1.06s.1-.48.29-.77c-.96-.87-1.73-1.83-2.3-2.89-.19 1.44.38 2.21.86 3.65.19-.1.48-.19.77-.38l.19-.19.1.96c.86 1.64 1.82 1.83 3.17 2.21.77.29 1.44-.29 2.01.1.38-.29.86-.19 1.44-.1l.67-.1c1.53-.38 2.49-.77 3.26-2.5l-.19-.87.38.77c.38.19.48-.29.58-.48.18-.56.94-1.71.94-2.96zm-9.59 5.09c.86.38 1.25-.87 1.06-1.06-.48-.19-.96.1-1.06 1.06zm1.34-.48c.67.29 1.25-1.06 1.06-1.54-1.06 0-.77.58-1.06 1.54zm.48-8.36c-.19-.1-.67.58-1.06.67.2 1.15 1.26.48 1.06-.67zm-.86 1.63c-.29-.1-.48-.38-.58-.58-.29.1-.48.19-.77.29.3.58.78.58 1.35.29zm-.96-.86c-.38-.1-.58-.29-.67-.67 0 0-.58-.38-.67-.38-.19.95.57 1.43 1.34 1.05zm-.67-2.22c-.29.19-.48.38-.67.67.19.19.29.29.48.38.1-.29.1-.58.29-.77 0 .01 0-.08-.1-.28zm-.86.39c.19-.48.58-.67.86-.77.1-.19.1-.38.19-.58-.77-.1-1.53.67-1.05 1.35zm.76-2.89v-.48h-3.26l-.1.38 3.36.1zm.29.1h.19c.19-.19.48-.19.48-.19.1-.38.29-.87.48-1.06-.19-.19-.38-.29-.48-.48-.19.38-.48.96-.67 1.73zm2.69-1.16c-.1-.19-.1-.38-.19-.58-.67-.19-1.25-.77-1.25-1.54 0-.87.67-1.54 1.53-1.54s1.53.67 1.53 1.54c0 .19 0 .38-.1.48.1.19.19.38.29.67.29-.38.38-.87.38-1.25 0-1.25-.96-2.31-2.21-2.31s-2.3 1.06-2.3 2.31c.11 1.26 1.07 2.22 2.32 2.22zm2.11.68v.48l4.99-.1-.1-.29H42.8v-.09zm-1.06 6.54l-.1 3.56c.19-.1.48-.19.67-.1 0-.48.48-1.25 1.06-1.06-.1-.29 0-.87.19-1.06-.19-.29-.29-.58-.29-.87-.48-.19-.86-.29-.96-.48-.18.01-.47.01-.57.01zm0-.29h.48s.19 0 .29-.1c.19-.1.48-.29.48-.29s-.38-.38-.77-.38-.58.19-.58.19v.58h.1zm.96.1c-.19.19 1.15.48 1.63.48-.19-.87-.76-1.25-1.63-.48zm.87.76c-.19.19.67 1.06 1.06 1.15.37-.57.18-1.15-1.06-1.15zm.19 1.06c-.19.19-.1 1.06.1 1.44.86-.09.76-1.05-.1-1.44zm-.39 1.06c-.77 0-.77.96-.67 1.44.87.2.96-1.15.67-1.44zm-1.05 1.16c-.96 0-.86.58-1.06 1.64.87.18 1.15-1.26 1.06-1.64zM40.4 32.7l.19 4.81.48.1-.19-.29.1-5.19-.58.57zm.19-.86c.77 0 1.06-.96.67-1.54-.67.19-.67.67-.67 1.54zm1.44-7.7v-.19c0-.67-.48-1.15-1.15-1.15-.58 0-1.06.38-1.15.96 0 0 1.15-.77 2.3.38zm-2.49 6.06c.96.19 1.63-.29 2.01-1.35 1.73-3.85-.58-5.39-1.73-4.62.1.29.29.58.58.67.48.29.58 1.06.58 1.64 0 .1-.19 2.4-1.53 2.89.18.19.18.67.09.77zm-.77-2.98c.67.19 1.06.67 1.34 1.35 0-.1.1-.1.1-.1-.1-.67-.96-1.44-1.44-1.25zm.86 0c.1 0 .48.48.67.96.1-.1.1-.19.19-.29-.28-.48-.57-.58-.86-.67zm.87.48c.19-.58.19-1.15.19-1.15-.29 0-.58-.1-.86-.19-.1.19-.29.48-.29.67.57 0 .76.48.96.67zm-.58 1.15c0-.96-1.06-1.73-1.82-1.35.77.01 1.72.97 1.82 1.35zm-.67 2.5c-.29-.67-.48-.38-1.06-.96-.38.68.29 1.35 1.06.96zm-.86-1.34c.1.29.38.38.58.38.19-.29.19-.58.1-.87-.2.2-.49.3-.68.49zm.67-.68c-.1-.19-.29-.48-.58-.48-.1-.1-.38.48-.19.87.1-.19.48-.48.77-.39zm-2.11-.67c.29-.29 1.15-.38 1.44-.29 0 0 .38-.19.48-.29-.39-.38-1.73-.38-1.92.58zM47.6 39.24l-.1.1s-.38 0-.86-.19c-.67 1.44-2.11 2.02-3.55 2.5-.77.29-1.53.77-2.11 1.25l-.1.1-.1-.1c-.58-.48-1.25-.87-2.01-1.15-1.34-.48-2.78-.96-3.55-2.69-.38.19-.77.38-.86.38l-.1-.1v-.1c-.58-1.73-1.06-3.46-.58-5.19l.1-.48.19.48c.58 1.35 1.44 2.4 2.59 3.37l.19.1-.29.19c-.19.19-.29.38-.29.67s.19.58.58.87c.38.48.86.77 1.34.87v-.19c.1-.87.86-1.73 1.53-1.35 0-.38.29-.77.58-.87l-.1-4.52c-.1 0-.48-.1-.48-.1-.67.67-1.82.29-2.01-.58-.77 0-1.44-1.06-.96-1.92-.29-.29-.29-1.15-.1-1.54v-.77h-.38v.29h-1.06v-.67h-1.15l.19-1.64h.96v-.29h1.25v.19h.77v-.29h.96v.1c.1-.29.29-.58.38-.77a2.68 2.68 0 0 1-.29-1.25c0-1.44 1.25-2.69 2.69-2.69 1.53 0 2.78 1.25 2.78 2.69 0 .87-.38 1.54-.96 2.02v.29h.77v-.29h1.34v.19h.67v-.29h1.25v.29h1.25l.19 1.44h-1.44v.67h-1.25v-.29h-.77v.87h-1.34v-.29l-.67.1-.86 1.54c.19.48.1 1.06-.1 1.44V31.83c.58-.38 1.15-.1 1.53.38.96-.19 1.34.38 1.44 1.44.58.19.58 1.44.1 1.64.29.67-.38 1.64-.96 1.44 0 .77-.86 1.54-1.25 1.15.1.58-.58 1.25-1.06 1.25v.29c.1.1.19.1.29.19.38.29.77.48 1.25.48.86 0 1.73-.58 2.01-1.06.48-.67.48-1.06 0-1.44l-.19-.19.19-.1c.38-.29 2.49-2.79 2.78-3.27l.1-.19.19.1c.19.1.19.29.29.67.11 1.36-.46 4.25-.84 4.63zm-.48 6.83l.58-.19-.58-.19.29-.48-.48.29-.19-.58-.19.58-.48-.29.29.48-.58.19.58.19-.29.48.48-.29.19.58.19-.58.48.29-.29-.48zm-12.38 0l.58-.19-.58-.1.29-.48-.48.29-.19-.58-.19.58-.38-.29.29.48-.58.19.58.19-.29.48.48-.29.19.58.19-.58.48.29-.39-.57z"/></defs><clipPath id="ij"><use xlink:href="#ii" overflow="visible"/></clipPath><g clip-path="url(#ij)"><defs><path id="ik" d="M5 5h236v127H5z"/></defs><clipPath id="il"><use xlink:href="#ik" overflow="visible"/></clipPath><path clip-path="url(#il)" fill="#221f1c" d="M28.49 16.25h24.98v37.32H28.49z"/></g></g><g><defs><path id="im" d="M32.44 40.3l-1.35.77.96 1.63 1.35-.77.28.39-2.78 1.63-.29-.38 1.16-.67-.96-1.64-1.15.67-.29-.38 2.78-1.64z"/></defs><clipPath id="in"><use xlink:href="#im" overflow="visible"/></clipPath><g clip-path="url(#in)"><defs><path id="io" d="M5 5h236v127H5z"/></defs><clipPath id="ip"><use xlink:href="#io" overflow="visible"/></clipPath><path clip-path="url(#ip)" fill="#221f1c" d="M24.37 34.91h14.32v14.04H24.37z"/></g></g><g><defs><path id="iq" d="M29.94 38.18l1.44-.48.1.48-1.44.48-1.34 1.64-.2-.58 1.06-1.15-1.54-.39-.19-.57z"/></defs><clipPath id="ir"><use xlink:href="#iq" overflow="visible"/></clipPath><g clip-path="url(#ir)"><defs><path id="is" d="M5 5h236v127H5z"/></defs><clipPath id="it"><use xlink:href="#is" overflow="visible"/></clipPath><path clip-path="url(#it)" fill="#221f1c" d="M22.83 32.61h13.65V45.3H22.83z"/></g></g><g><defs><path id="iu" d="M28.02 35.2l.1.58 2.4-.29-.1-.58c-.1-.87-.67-1.25-1.34-1.15-.67.09-1.15.67-1.06 1.44zm2.79-.38l.1 1.06-3.26.38-.1-1.06c-.1-.96.48-1.83 1.44-1.92s1.72.57 1.82 1.54z"/></defs><clipPath id="iv"><use xlink:href="#iu" overflow="visible"/></clipPath><g clip-path="url(#iv)"><defs><path id="iw" d="M5 5h236v127H5z"/></defs><clipPath id="ix"><use xlink:href="#iw" overflow="visible"/></clipPath><path clip-path="url(#ix)" fill="#221f1c" d="M22.53 28.27H35.9v12.99H22.53z"/></g></g><g><defs><path id="iy" d="M27.93 30.97v.38l.96.1v-.38c0-.38-.19-.58-.48-.67-.29-.01-.48.18-.48.57zm2.88-.77l-1.53.87v.38l1.44.1v.48l-3.26-.29.1-.96c.1-.77.58-.96.96-.96s.67.29.77.67l1.63-.96-.11.67z"/></defs><clipPath id="iz"><use xlink:href="#iy" overflow="visible"/></clipPath><g clip-path="url(#iz)"><defs><path id="iA" d="M5 5h236v127H5z"/></defs><clipPath id="iB"><use xlink:href="#iA" overflow="visible"/></clipPath><path clip-path="url(#iB)" fill="#221f1c" d="M22.45 24.53H35.9v12.5H22.45z"/></g></g><g><defs><path id="iC" d="M28.7 26.64c-.19.67.19 1.35.86 1.54.67.19 1.34-.19 1.53-.87.19-.67-.19-1.35-.86-1.54-.67-.19-1.34.2-1.53.87zm2.78.87c-.29.96-1.15 1.44-2.11 1.15-.96-.29-1.44-1.25-1.15-2.12.29-.87 1.15-1.44 2.11-1.15 1.05.19 1.44 1.15 1.15 2.12z"/></defs><clipPath id="iD"><use xlink:href="#iC" overflow="visible"/></clipPath><g clip-path="url(#iD)"><defs><path id="iE" d="M5 5h236v127H5z"/></defs><clipPath id="iF"><use xlink:href="#iE" overflow="visible"/></clipPath><path clip-path="url(#iF)" fill="#221f1c" d="M23.13 20.32h13.44v13.43H23.13z"/></g></g><g><defs><path id="iG" d="M33.3 23.66c-.48.77-1.53 1.06-2.4.58a1.69 1.69 0 0 1-.48-2.4c.19-.29.58-.58.96-.87l.38.29c-.48.19-.77.48-.96.87-.38.58-.19 1.35.38 1.73.58.38 1.34.19 1.73-.38.19-.19.19-.48.29-.77l-.67-.38-.38.67-.38-.19.67-1.06 1.25.77c-.01.27-.2.75-.39 1.14z"/></defs><clipPath id="iH"><use xlink:href="#iG" overflow="visible"/></clipPath><g clip-path="url(#iH)"><defs><path id="iI" d="M5 5h236v127H5z"/></defs><clipPath id="iJ"><use xlink:href="#iI" overflow="visible"/></clipPath><path clip-path="url(#iJ)" fill="#221f1c" d="M25.12 15.97h13.57v13.51H25.12z"/></g></g><g><defs><path id="iK" d="M33.4 19.04l-.29.29.58.77.29-.29c.29-.29.29-.58.1-.77-.11-.19-.4-.19-.68 0zm2.68 1.54l-1.73-.48-.38.29.96 1.15-.38.29-2.11-2.5.67-.58c.58-.48 1.15-.29 1.34 0 .29.29.29.67.1.96l1.82.48-.29.39z"/></defs><clipPath id="iL"><use xlink:href="#iK" overflow="visible"/></clipPath><g clip-path="url(#iL)"><defs><path id="iM" d="M5 5h236v127H5z"/></defs><clipPath id="iN"><use xlink:href="#iM" overflow="visible"/></clipPath><path clip-path="url(#iN)" fill="#221f1c" d="M27.44 13.46h13.93v13.37H27.44z"/></g></g><g><defs><path id="iO" d="M37.33 16.83v1.64l1.06-.38-1.06-1.26zm1.92 2.21l-.58-.67-1.44.48v.87l-.48.19.19-3.56.38-.19 2.4 2.69-.47.19z"/></defs><clipPath id="iP"><use xlink:href="#iO" overflow="visible"/></clipPath><g clip-path="url(#iP)"><defs><path id="iQ" d="M5 5h236v127H5z"/></defs><clipPath id="iR"><use xlink:href="#iQ" overflow="visible"/></clipPath><path clip-path="url(#iR)" fill="#221f1c" d="M31.75 11.16h12.97v13.75H31.75z"/></g></g><g><defs><path id="iS" d="M41.46 16.16h-.48l-.1 1.15h.48c.38 0 .67-.19.67-.48.1-.38-.1-.67-.57-.67zm0 1.54h-.58l-.1 1.35h-.48l.19-3.27.96.1c.86 0 1.06.58 1.06 1.06 0 .47-.58.76-1.05.76z"/></defs><clipPath id="iT"><use xlink:href="#iS" overflow="visible"/></clipPath><g clip-path="url(#iT)"><defs><path id="iU" d="M5 5h236v127H5z"/></defs><clipPath id="iV"><use xlink:href="#iU" overflow="visible"/></clipPath><path clip-path="url(#iV)" fill="#221f1c" d="M35.3 10.77h12.21v13.27H35.3z"/></g></g><g><defs><path id="iW" d="M45.2 20.2l.67-1.35-1.63-.87-.67 1.45-.39-.19 1.44-2.99.38.2-.57 1.15 1.63.87.58-1.16.38.19-1.34 2.89z"/></defs><clipPath id="iX"><use xlink:href="#iW" overflow="visible"/></clipPath><g clip-path="url(#iX)"><defs><path id="iY" d="M5 5h236v127H5z"/></defs><clipPath id="iZ"><use xlink:href="#iY" overflow="visible"/></clipPath><path clip-path="url(#iZ)" fill="#221f1c" d="M38.18 11.25h13.84v14.14H38.18z"/></g></g><g><defs><path id="ja" d="M46.35 21.06l2.2-2.4.39.29-2.21 2.4z"/></defs><clipPath id="jb"><use xlink:href="#ja" overflow="visible"/></clipPath><g clip-path="url(#jb)"><defs><path id="jc" d="M5 5h236v127H5z"/></defs><clipPath id="jd"><use xlink:href="#jc" overflow="visible"/></clipPath><path clip-path="url(#jd)" fill="#221f1c" d="M41.35 13.66h12.59v12.69H41.35z"/></g></g><g><defs><path id="je" d="M50.76 21.74c-.38-.58-1.15-.67-1.73-.29-.58.38-.67 1.15-.29 1.73.29.38.58.58.96.67l-.38.38c-.38-.19-.67-.38-.96-.77-.58-.77-.48-1.83.38-2.4.77-.58 1.82-.38 2.4.38.29.29.38.67.38 1.15l-.38.29c0-.37-.09-.86-.38-1.14z"/></defs><clipPath id="jf"><use xlink:href="#je" overflow="visible"/></clipPath><g clip-path="url(#jf)"><defs><path id="jg" d="M5 5h236v127H5z"/></defs><clipPath id="jh"><use xlink:href="#jg" overflow="visible"/></clipPath><path clip-path="url(#jh)" fill="#221f1c" d="M43 15.73h13.53v13.51H43z"/></g></g><g><defs><path id="ji" d="M53.26 27.22c-.19-.67-.86-1.06-1.53-.87-.67.19-1.06.87-.86 1.54.19.67.86 1.06 1.53.87.66-.2 1.05-.87.86-1.54zm-2.88.77c-.29-.96.19-1.83 1.15-2.12.96-.29 1.82.29 2.11 1.25.29.96-.19 1.83-1.15 2.12-.96.29-1.82-.29-2.11-1.25z"/></defs><clipPath id="jj"><use xlink:href="#ji" overflow="visible"/></clipPath><g clip-path="url(#jj)"><defs><path id="jk" d="M5 5h236v127H5z"/></defs><clipPath id="jl"><use xlink:href="#jk" overflow="visible"/></clipPath><path clip-path="url(#jl)" fill="#221f1c" d="M45.29 20.8h13.43v13.52H45.29z"/></g></g><g><defs><path id="jm" d="M53.83 30.87l-.86.1.09 1.15h-.38l-.1-1.15-1.53.1v-.49l3.26-.19.1 2.02h-.39z"/></defs><clipPath id="jn"><use xlink:href="#jm" overflow="visible"/></clipPath><g clip-path="url(#jn)"><defs><path id="jo" d="M5 5h236v127H5z"/></defs><clipPath id="jp"><use xlink:href="#jo" overflow="visible"/></clipPath><path clip-path="url(#jp)" fill="#221f1c" d="M46.05 25.39h13.36v12.02H46.05z"/></g></g><g><defs><path id="jq" d="M53.93 34.14l-.96-.09-.1 1.15h-.38l.09-1.15-1.53-.2v-.48l3.26.29-.19 2.12h-.39z"/></defs><clipPath id="jr"><use xlink:href="#jq" overflow="visible"/></clipPath><g clip-path="url(#jr)"><defs><path id="js" d="M5 5h236v127H5z"/></defs><clipPath id="jt"><use xlink:href="#js" overflow="visible"/></clipPath><path clip-path="url(#jt)" fill="#221f1c" d="M46.05 28.37h13.26v12.4H46.05z"/></g></g><g><defs><path id="ju" d="M50.76 36.26l3.17.67-.1.48-3.16-.67z"/></defs><clipPath id="jv"><use xlink:href="#ju" overflow="visible"/></clipPath><g clip-path="url(#jv)"><defs><path id="jw" d="M5 5h236v127H5z"/></defs><clipPath id="jx"><use xlink:href="#jw" overflow="visible"/></clipPath><path clip-path="url(#jx)" fill="#221f1c" d="M45.67 31.26h13.26v11.15H45.67z"/></g></g><g><defs><path id="jy" d="M52.49 40.4c.29-.67-.1-1.35-.67-1.64-.67-.29-1.34 0-1.63.67-.19.38-.19.77-.1 1.25l-.48-.19c-.1-.38 0-.77.1-1.15.38-.87 1.25-1.35 2.21-.96.96.38 1.25 1.35.96 2.21-.19.38-.38.67-.77.96l-.48-.19c.38-.29.67-.68.86-.96z"/></defs><clipPath id="jz"><use xlink:href="#jy" overflow="visible"/></clipPath><g clip-path="url(#jz)"><defs><path id="jA" d="M5 5h236v127H5z"/></defs><clipPath id="jB"><use xlink:href="#jA" overflow="visible"/></clipPath><path clip-path="url(#jB)" fill="#221f1c" d="M44.57 33.24h13.41v13.31H44.57z"/></g></g><g><defs><path id="jC" d="M48.84 41.16l2.69 1.93-1.15 1.73-.39-.29.96-1.35-.67-.48-.77 1.06-.38-.29.77-1.05-.96-.68-.96 1.35-.38-.29z"/></defs><clipPath id="jD"><use xlink:href="#jC" overflow="visible"/></clipPath><g clip-path="url(#jD)"><defs><path id="jE" d="M5 5h236v127H5z"/></defs><clipPath id="jF"><use xlink:href="#jE" overflow="visible"/></clipPath><path clip-path="url(#jF)" fill="#221f1c" d="M42.6 36.16h13.93v13.65H42.6z"/></g></g></svg>